<?xml version="1.0" encoding="UTF-8" standalone="no"?>
<!-- Created with Inkscape (http://www.inkscape.org/) -->

<svg
   xmlns:dc="http://purl.org/dc/elements/1.1/"
   xmlns:cc="http://creativecommons.org/ns#"
   xmlns:rdf="http://www.w3.org/1999/02/22-rdf-syntax-ns#"
   xmlns:svg="http://www.w3.org/2000/svg"
   xmlns="http://www.w3.org/2000/svg"
   xmlns:xlink="http://www.w3.org/1999/xlink"
   xmlns:sodipodi="http://sodipodi.sourceforge.net/DTD/sodipodi-0.dtd"
   xmlns:inkscape="http://www.inkscape.org/namespaces/inkscape"
   width="180"
   height="120"
   id="svg3168"
   version="1.1"
   inkscape:version="0.48.0 r9654"
   sodipodi:docname="logo-promo-180x120.svg"
   inkscape:export-filename="/home/andy/Desktop/logo-promo-180x120.png"
   inkscape:export-xdpi="90"
   inkscape:export-ydpi="90">
  <defs
     id="defs3170">
    <filter
       color-interpolation-filters="sRGB"
       inkscape:collect="always"
       id="filter3993">
      <feGaussianBlur
         inkscape:collect="always"
         stdDeviation="1.0277075"
         id="feGaussianBlur3995" />
    </filter>
    <linearGradient
       id="linearGradient2322">
      <stop
         id="stop2324"
         offset="0"
         style="stop-color:white;stop-opacity:1;" />
      <stop
         id="stop2326"
         offset="1"
         style="stop-color:#c1c7bc;stop-opacity:1;" />
    </linearGradient>
    <linearGradient
       id="linearGradient2789"
       inkscape:collect="always">
      <stop
         id="stop2791"
         offset="0"
         style="stop-color:white;stop-opacity:1;" />
      <stop
         id="stop2793"
         offset="1"
         style="stop-color:white;stop-opacity:0;" />
    </linearGradient>
    <linearGradient
       id="linearGradient8028"
       inkscape:collect="always">
      <stop
         id="stop8030"
         offset="0"
         style="stop-color:#ffffff;stop-opacity:1;" />
      <stop
         id="stop8032"
         offset="1"
         style="stop-color:#ffffff;stop-opacity:0;" />
    </linearGradient>
    <linearGradient
       id="linearGradient5113"
       inkscape:collect="always">
      <stop
         id="stop5115"
         offset="0"
         style="stop-color:white;stop-opacity:1;" />
      <stop
         id="stop5117"
         offset="1"
         style="stop-color:white;stop-opacity:0;" />
    </linearGradient>
    <filter
       color-interpolation-filters="sRGB"
       inkscape:collect="always"
       id="filter3937"
       x="-0.013630582"
       width="1.0272613"
       y="-0.10031203"
       height="1.2006241">
      <feGaussianBlur
         inkscape:collect="always"
         stdDeviation="1.3576229"
         id="feGaussianBlur3939" />
    </filter>
    <radialGradient
       inkscape:collect="always"
       xlink:href="#linearGradient2322"
       id="radialGradient4227"
       gradientUnits="userSpaceOnUse"
       gradientTransform="matrix(0.4044676,0,0,0.427577,4.3012139,2.476585)"
       cx="10.78257"
       cy="15.491104"
       fx="10.78257"
       fy="15.491104"
       r="17.709194" />
    <linearGradient
       inkscape:collect="always"
       xlink:href="#linearGradient2789"
       id="linearGradient4229"
       gradientUnits="userSpaceOnUse"
       x1="25.593685"
       y1="20.92672"
       x2="26.1399"
       y2="51.027462" />
    <linearGradient
       inkscape:collect="always"
       xlink:href="#linearGradient8028"
       id="linearGradient4231"
       gradientUnits="userSpaceOnUse"
       x1="25.865906"
       y1="-40.465305"
       x2="23.732271"
       y2="-49.625301" />
    <linearGradient
       inkscape:collect="always"
       xlink:href="#linearGradient5113"
       id="linearGradient4233"
       gradientUnits="userSpaceOnUse"
       gradientTransform="matrix(1.4418641,0,0,2.7755587,-13.524132,39.280185)"
       x1="25.99827"
       y1="-6.8648982"
       x2="25.970385"
       y2="-4.2833176" />
  </defs>
  <sodipodi:namedview
     id="base"
     pagecolor="#ffffff"
     bordercolor="#666666"
     borderopacity="1.0"
     inkscape:pageopacity="1"
     inkscape:pageshadow="2"
     inkscape:zoom="3.959798"
     inkscape:cx="67.19089"
     inkscape:cy="46.175089"
     inkscape:document-units="px"
     inkscape:current-layer="layer1"
     showgrid="false"
     inkscape:window-width="1440"
     inkscape:window-height="825"
     inkscape:window-x="0"
     inkscape:window-y="24"
     inkscape:window-maximized="1" />
  <metadata
     id="metadata3173">
    <rdf:RDF>
      <cc:Work
         rdf:about="">
        <dc:format>image/svg+xml</dc:format>
        <dc:type
           rdf:resource="http://purl.org/dc/dcmitype/StillImage" />
        <dc:title></dc:title>
      </cc:Work>
    </rdf:RDF>
  </metadata>
  <g
     inkscape:label="Layer 1"
     inkscape:groupmode="layer"
     id="layer1"
     transform="translate(0,-932.36218)">
    <g
       transform="matrix(2.4391323,0,0,2.4391323,30.905607,933.42814)"
       id="g3220">
      <path
         inkscape:connector-curvature="0"
         id="path6979-1"
         d="m 26.312816,1012.528 c -0.501133,10e-5 -1.00054,0.025 -1.5,0.062 -8.575345,0.434 -15.4166793,7.4449 -17.1250003,15.4687 l -3.15625,0 0,7.4688 3.125,0 c 0.261579,1.2094 0.639673,2.4026 1.1875,3.5625 4.3590913,11.5172 20.5676533,15.4806 29.7500003,7.2812 3.574498,-2.7123 5.739699,-6.6345 6.53125,-10.8437 l 3.4375,0 0,-7.4688 -3.4375,0 c -0.954745,-5.2383 -3.931465,-10.0773 -8.8125,-12.75 -2.98208,-1.8658 -6.492067,-2.7821 -10,-2.7812 z m 0.875,6.75 c 5.243093,0.1027 9.452335,4.0413 11,8.7812 l -23.5625,0 c 1.565579,-4.923 6.139679,-8.8677 11.6875,-8.75 0.299417,-0.019 0.581779,-0.037 0.875,-0.031 z m -12.46875,16.25 23.5625,0 c -0.355083,1.0665 -0.90268,2.1047 -1.625,3.0625 -5.039802,8.2506 -18.998979,6.5434 -21.84375,-2.75 -0.03977,-0.103 -0.05722,-0.2091 -0.09375,-0.3125 z"
         style="fill:#555753;fill-opacity:0.72941176;stroke:none;filter:url(#filter3993)"
         transform="matrix(1.0471297,0,0,1.0471297,-2.6388983,-1054.3181)" />
      <g
         id="g4608"
         transform="matrix(1.1242975,0,0,1.1242975,-2.9831381,-2.6903607)">
        <path
           transform="matrix(2.0559897,0,0,1.8695243,6.2302591,4.9408055)"
           d="m 15.092248,10.078017 c 0,3.921005 -2.878735,7.099608 -6.4298334,7.099608 -3.551099,0 -6.4298335,-3.178603 -6.4298335,-7.099608 0,-3.9210047 2.8787345,-7.0996072 6.4298335,-7.0996072 3.5510984,0 6.4298334,3.1786025 6.4298334,7.0996072 z"
           sodipodi:ry="7.0996075"
           sodipodi:rx="6.4298334"
           sodipodi:cy="10.078017"
           sodipodi:cx="8.6624146"
           id="path6975"
           style="fill:url(#radialGradient4227);fill-opacity:1;stroke:#babdb6;stroke-width:0.38685802;stroke-linecap:round;stroke-linejoin:round;stroke-miterlimit:4;stroke-opacity:1;stroke-dasharray:none"
           sodipodi:type="arc" />
        <path
           id="path6977"
           d="m 24.069609,10.387138 c -7.208601,0 -13.059574,5.82693 -13.059574,13.035874 0,0.29249 0.02846,0.589262 0.0474,0.87696 0.455389,-6.795847 6.101256,-12.158916 13.012172,-12.158916 6.910919,0 12.556783,5.36307 13.012172,12.158916 0.01894,-0.287698 0.0474,-0.58447 0.0474,-0.87696 0,-7.208943 -5.850973,-13.035874 -13.059576,-13.035874 z"
           style="opacity:0.11855672;fill:#000000;fill-opacity:1;stroke:none"
           inkscape:connector-curvature="0" />
        <path
           inkscape:connector-curvature="0"
           id="path6979"
           d="M 22.552708,6.0057128 C 10.935597,6.5936805 2.7110643,20.157294 7.6918128,30.702768 11.751711,41.429489 26.846866,45.118055 35.398969,37.481422 44.798943,30.348814 43.616759,14.209655 33.265826,8.5417828 30.091654,6.5558211 26.274139,5.7273304 22.552708,6.0057128 z m 1.398394,6.2572192 c 8.923703,-0.55985 15.028484,10.829556 9.646546,17.965804 C 28.90376,37.913032 15.8875,36.324547 13.237984,27.668964 10.470529,20.502965 16.180769,12.098039 23.951102,12.262932 z"
           style="fill:#cc0000;fill-opacity:1;stroke:#a40000;stroke-width:0.75845081;stroke-linecap:round;stroke-linejoin:round;stroke-miterlimit:4;stroke-opacity:1;stroke-dasharray:none" />
        <path
           transform="matrix(0.85567289,0,0,0.85475885,3.9696495,2.5584491)"
           d="m 43.375,24.75 c 0,10.976659 -8.898341,19.875 -19.875,19.875 -10.976659,0 -19.875,-8.898341 -19.875,-19.875 0,-10.976659 8.898341,-19.875 19.875,-19.875 10.976659,0 19.875,8.898341 19.875,19.875 z"
           sodipodi:ry="19.875"
           sodipodi:rx="19.875"
           sodipodi:cy="24.75"
           sodipodi:cx="23.5"
           id="path6981"
           style="opacity:0.51030926;color:#000000;fill:none;stroke:url(#linearGradient4229);stroke-width:0.88858992;stroke-linecap:round;stroke-linejoin:round;stroke-miterlimit:4;stroke-opacity:1;stroke-dasharray:none;stroke-dashoffset:0;marker:none;visibility:visible;display:inline;overflow:visible"
           sodipodi:type="arc" />
        <path
           transform="matrix(0.72167409,0,0,1.7189218,6.9289048,103.95699)"
           d="m 40.835417,-46.711533 c 0,3.929651 -7.657339,7.115262 -17.103146,7.115262 -9.445806,0 -17.1031454,-3.185611 -17.1031454,-7.115262 0,-3.92965 7.6573394,-7.115262 17.1031454,-7.115262 9.445807,0 17.103146,3.185612 17.103146,7.115262 z"
           sodipodi:ry="7.115262"
           sodipodi:rx="17.103146"
           sodipodi:cy="-46.711533"
           sodipodi:cx="23.732271"
           id="path8026"
           style="opacity:0.5;fill:none;stroke:url(#linearGradient4231);stroke-width:0.68498784;stroke-linecap:round;stroke-linejoin:round;stroke-miterlimit:4;stroke-opacity:1;stroke-dasharray:none;stroke-dashoffset:0.69999992"
           sodipodi:type="arc" />
      </g>
      <g
         id="g4603"
         transform="matrix(1.046808,0,0,1.1242975,-1.1233902,-2.69036)">
        <g
           transform="matrix(0.94715177,0,0,0.94715177,1.268356,1.0079467)"
           id="g4140">
          <rect
             y="20.321795"
             x="0.74569297"
             height="7.3564095"
             width="46.508614"
             id="rect4242"
             style="color:#000000;fill:#3465a4;fill-opacity:1;fill-rule:nonzero;stroke:#204a87;stroke-width:0.79666007;stroke-linecap:butt;stroke-linejoin:miter;stroke-miterlimit:4;stroke-opacity:1;stroke-dasharray:none;stroke-dashoffset:0;marker:none;visibility:visible;display:inline;overflow:visible" />
          <rect
             y="21.239014"
             x="1.6154469"
             height="5.5511169"
             width="44.697746"
             id="rect6697"
             style="opacity:0.35400008;color:#000000;fill:none;stroke:url(#linearGradient4233);stroke-width:1;stroke-linecap:butt;stroke-linejoin:miter;stroke-miterlimit:4;stroke-opacity:1;stroke-dasharray:none;stroke-dashoffset:0;marker:none;visibility:visible;display:inline;overflow:visible" />
        </g>
      </g>
    </g>
    <g
       transform="matrix(0.47666896,0,0,0.47666896,10.371257,500.77309)"
       id="g3342">
      <text
         sodipodi:linespacing="125%"
         id="text3245"
         y="1044.0344"
         x="56.343502"
         style="font-size:37.40092087px;font-style:normal;font-variant:normal;font-weight:bold;font-stretch:normal;text-align:start;line-height:125%;letter-spacing:0px;word-spacing:0px;writing-mode:lr-tb;text-anchor:start;fill:#eeeeec;fill-opacity:1;stroke:none;font-family:Ubuntu;-inkscape-font-specification:Ubuntu Bold"
         xml:space="preserve"><tspan
           y="1044.0344"
           x="56.343502"
           id="tspan3247"
           sodipodi:role="line">Tube Chaser</tspan></text>
      <text
         transform="matrix(0.90964509,0,0,0.90964509,-1.3464701,100.67118)"
         sodipodi:linespacing="125%"
         id="text3245-1"
         y="1038.7341"
         x="64.782204"
         style="font-size:41.11594772px;font-style:normal;font-variant:normal;font-weight:bold;font-stretch:normal;text-align:start;line-height:125%;letter-spacing:0px;word-spacing:0px;writing-mode:lr-tb;text-anchor:start;fill:#555753;fill-opacity:1;stroke:none;filter:url(#filter3937);font-family:Ubuntu;-inkscape-font-specification:Ubuntu Bold"
         xml:space="preserve"><tspan
           y="1038.7341"
           x="64.782204"
           id="tspan3247-2"
           sodipodi:role="line">Tube Chaser</tspan></text>
      <text
         sodipodi:linespacing="125%"
         id="text3245-1-3"
         y="1044.0347"
         x="56.343914"
         style="font-size:37.40092087px;font-style:normal;font-variant:normal;font-weight:bold;font-stretch:normal;text-align:start;line-height:125%;letter-spacing:0px;word-spacing:0px;writing-mode:lr-tb;text-anchor:start;fill:#ffffff;fill-opacity:1;stroke:none;font-family:Ubuntu;-inkscape-font-specification:Ubuntu Bold"
         xml:space="preserve"><tspan
           style="fill:#ffffff;fill-opacity:1;stroke:none"
           y="1044.0347"
           x="56.343914"
           id="tspan3247-2-6"
           sodipodi:role="line">Tube Chaser</tspan></text>
    </g>
  </g>
</svg>
