<?xml version="1.0" encoding="UTF-8" standalone="no"?>
<!-- Created with Inkscape (http://www.inkscape.org/) -->

<svg
   xmlns:dc="http://purl.org/dc/elements/1.1/"
   xmlns:cc="http://creativecommons.org/ns#"
   xmlns:rdf="http://www.w3.org/1999/02/22-rdf-syntax-ns#"
   xmlns:svg="http://www.w3.org/2000/svg"
   xmlns="http://www.w3.org/2000/svg"
   xmlns:sodipodi="http://sodipodi.sourceforge.net/DTD/sodipodi-0.dtd"
   xmlns:inkscape="http://www.inkscape.org/namespaces/inkscape"
   width="40"
   height="40"
   id="svg2"
   version="1.1"
   inkscape:version="0.48.0 r9654"
   sodipodi:docname="ic_title_myloc_alt.svg">
  <defs
     id="defs4" />
  <sodipodi:namedview
     id="base"
     pagecolor="#ffffff"
     bordercolor="#666666"
     borderopacity="1.0"
     inkscape:pageopacity="0.0"
     inkscape:pageshadow="2"
     inkscape:zoom="8"
     inkscape:cx="0.074418853"
     inkscape:cy="8.5631686"
     inkscape:document-units="px"
     inkscape:current-layer="layer1"
     showgrid="false"
     inkscape:window-width="1440"
     inkscape:window-height="825"
     inkscape:window-x="0"
     inkscape:window-y="24"
     inkscape:window-maximized="1"
     showguides="true"
     inkscape:guide-bbox="true" />
  <metadata
     id="metadata7">
    <rdf:RDF>
      <cc:Work
         rdf:about="">
        <dc:format>image/svg+xml</dc:format>
        <dc:type
           rdf:resource="http://purl.org/dc/dcmitype/StillImage" />
        <dc:title></dc:title>
      </cc:Work>
    </rdf:RDF>
  </metadata>
  <g
     inkscape:label="Layer 1"
     inkscape:groupmode="layer"
     id="layer1"
     transform="translate(0,-1012.3622)">
    <g
       id="g3811"
       transform="matrix(0.94139194,0,0,0.94139194,1.1721612,60.504746)"
       style="fill:#f9f9f9">
      <path
         transform="matrix(1.1704545,0,0,1.1704545,-4.0014532,1009.7524)"
         d="m 28.28427,19.317127 c 0,4.295767 -3.482407,7.778175 -7.778174,7.778175 -4.295767,0 -7.778175,-3.482408 -7.778175,-7.778175 0,-4.295767 3.482408,-7.778174 7.778175,-7.778174 4.295767,0 7.778174,3.482407 7.778174,7.778174 z"
         sodipodi:ry="7.7781744"
         sodipodi:rx="7.7781744"
         sodipodi:cy="19.317127"
         sodipodi:cx="20.506096"
         id="path3760"
         style="fill:#f9f9f9;fill-opacity:1;stroke:none"
         sodipodi:type="arc" />
      <path
         inkscape:connector-curvature="0"
         id="path3764"
         d="m 20,1017.8622 c -8.003144,0 -14.5,6.4968 -14.5,14.5 0,8.0032 6.496856,14.5 14.5,14.5 8.003144,0 14.5,-6.4968 14.5,-14.5 0,-8.0032 -6.496856,-14.5 -14.5,-14.5 z m 0,3.3834 c 6.140778,0 11.116666,4.9759 11.116666,11.1166 0,6.1408 -4.975888,11.1167 -11.116666,11.1167 -6.140778,0 -11.1166666,-4.9759 -11.1166666,-11.1167 0,-6.1407 4.9758886,-11.1166 11.1166666,-11.1166 z"
         style="fill:#f9f9f9;fill-opacity:1;stroke:none" />
      <path
         id="rect3783-0"
         transform="translate(0,1012.3622)"
         d="m 18.1875,2.9375 0,3.1875 C 18.781744,6.0480584 19.384801,6 20,6 c 0.615199,0 1.218256,0.048058 1.8125,0.125 l 0,-3.1875 -3.625,0 z m -15.25,15.25 0,3.625 3.1875,0 C 6.0480584,21.218256 6,20.615199 6,20 6,19.384801 6.0480584,18.781744 6.125,18.1875 l -3.1875,0 z m 30.9375,0 C 33.951942,18.781744 34,19.384801 34,20 c 0,0.615199 -0.04806,1.218256 -0.125,1.8125 l 3.1875,0 0,-3.625 -3.1875,0 z m -15.6875,15.6875 0,3.1875 3.625,0 0,-3.1875 C 21.218256,33.951942 20.615199,34 20,34 19.384801,34 18.781744,33.95194 18.1875,33.875 z"
         style="fill:#f9f9f9;fill-opacity:1;stroke:none"
         inkscape:connector-curvature="0" />
    </g>
  </g>
</svg>
