<?xml version="1.0" encoding="UTF-8" standalone="no"?>
<!-- Created with Inkscape (http://www.inkscape.org/) -->

<svg
   xmlns:dc="http://purl.org/dc/elements/1.1/"
   xmlns:cc="http://creativecommons.org/ns#"
   xmlns:rdf="http://www.w3.org/1999/02/22-rdf-syntax-ns#"
   xmlns:svg="http://www.w3.org/2000/svg"
   xmlns="http://www.w3.org/2000/svg"
   xmlns:xlink="http://www.w3.org/1999/xlink"
   xmlns:sodipodi="http://sodipodi.sourceforge.net/DTD/sodipodi-0.dtd"
   xmlns:inkscape="http://www.inkscape.org/namespaces/inkscape"
   width="350"
   height="60"
   id="svg2"
   version="1.1"
   inkscape:version="0.48.0 r9654"
   sodipodi:docname="title_logo.svg">
  <defs
     id="defs4">
    <linearGradient
       y2="-4.2833176"
       x2="25.970385"
       y1="-6.8648982"
       x1="25.99827"
       gradientTransform="matrix(1.4418641,0,0,2.7755587,-13.524132,39.280185)"
       gradientUnits="userSpaceOnUse"
       id="linearGradient3125"
       xlink:href="#linearGradient5113"
       inkscape:collect="always" />
    <linearGradient
       y2="-49.625301"
       x2="23.732271"
       y1="-40.465305"
       x1="25.865906"
       gradientUnits="userSpaceOnUse"
       id="linearGradient3123"
       xlink:href="#linearGradient8028"
       inkscape:collect="always" />
    <linearGradient
       y2="51.027462"
       x2="26.1399"
       y1="20.92672"
       x1="25.593685"
       gradientUnits="userSpaceOnUse"
       id="linearGradient3121"
       xlink:href="#linearGradient2789"
       inkscape:collect="always" />
    <radialGradient
       r="17.709194"
       fy="15.491104"
       fx="10.78257"
       cy="15.491104"
       cx="10.78257"
       gradientTransform="matrix(0.4044676,0,0,0.427577,4.3012139,2.476585)"
       gradientUnits="userSpaceOnUse"
       id="radialGradient3119"
       xlink:href="#linearGradient2322"
       inkscape:collect="always" />
    <linearGradient
       y2="-49.625301"
       x2="23.732271"
       y1="-40.465305"
       x1="25.865906"
       gradientUnits="userSpaceOnUse"
       id="linearGradient4621"
       xlink:href="#linearGradient8028"
       inkscape:collect="always" />
    <linearGradient
       y2="51.027462"
       x2="26.1399"
       y1="20.92672"
       x1="25.593685"
       gradientUnits="userSpaceOnUse"
       id="linearGradient4619"
       xlink:href="#linearGradient2789"
       inkscape:collect="always" />
    <radialGradient
       r="17.709194"
       fy="15.491104"
       fx="10.78257"
       cy="15.491104"
       cx="10.78257"
       gradientTransform="matrix(0.4044676,0,0,0.427577,4.3012139,2.476585)"
       gradientUnits="userSpaceOnUse"
       id="radialGradient4617"
       xlink:href="#linearGradient2322"
       inkscape:collect="always" />
    <linearGradient
       y2="-4.2833176"
       x2="25.970385"
       y1="-6.8648982"
       x1="25.99827"
       gradientTransform="matrix(1.4418641,0,0,2.7755587,-13.524132,39.280185)"
       gradientUnits="userSpaceOnUse"
       id="linearGradient4615"
       xlink:href="#linearGradient5113"
       inkscape:collect="always" />
    <linearGradient
       y2="-4.2833176"
       x2="25.970385"
       y1="-6.8648982"
       x1="25.99827"
       gradientTransform="matrix(1.4418641,0,0,2.7755587,-13.524132,39.280185)"
       gradientUnits="userSpaceOnUse"
       id="linearGradient4569"
       xlink:href="#linearGradient5113"
       inkscape:collect="always" />
    <linearGradient
       y2="-49.625301"
       x2="23.732271"
       y1="-40.465305"
       x1="25.865906"
       gradientUnits="userSpaceOnUse"
       id="linearGradient4567"
       xlink:href="#linearGradient8028"
       inkscape:collect="always" />
    <linearGradient
       y2="51.027462"
       x2="26.1399"
       y1="20.92672"
       x1="25.593685"
       gradientUnits="userSpaceOnUse"
       id="linearGradient4565"
       xlink:href="#linearGradient2789"
       inkscape:collect="always" />
    <radialGradient
       r="17.709194"
       fy="15.491104"
       fx="10.78257"
       cy="15.491104"
       cx="10.78257"
       gradientTransform="matrix(0.4044676,0,0,0.427577,4.3012139,2.476585)"
       gradientUnits="userSpaceOnUse"
       id="radialGradient4563"
       xlink:href="#linearGradient2322"
       inkscape:collect="always" />
    <radialGradient
       r="12.125"
       fy="27.875"
       fx="16"
       cy="27.875"
       cx="16"
       gradientTransform="matrix(1,0,0,0.2886598,0,19.828608)"
       gradientUnits="userSpaceOnUse"
       id="radialGradient4561"
       xlink:href="#linearGradient6917"
       inkscape:collect="always" />
    <linearGradient
       y2="-4.2833176"
       x2="25.970385"
       y1="-6.8648982"
       x1="25.99827"
       gradientTransform="matrix(1.4418641,0,0,2.7755587,-13.524132,39.280185)"
       gradientUnits="userSpaceOnUse"
       id="linearGradient4549"
       xlink:href="#linearGradient5113"
       inkscape:collect="always" />
    <linearGradient
       y2="-49.625301"
       x2="23.732271"
       y1="-40.465305"
       x1="25.865906"
       gradientUnits="userSpaceOnUse"
       id="linearGradient4547"
       xlink:href="#linearGradient8028"
       inkscape:collect="always" />
    <linearGradient
       y2="51.027462"
       x2="26.1399"
       y1="20.92672"
       x1="25.593685"
       gradientUnits="userSpaceOnUse"
       id="linearGradient4545"
       xlink:href="#linearGradient2789"
       inkscape:collect="always" />
    <radialGradient
       r="17.709194"
       fy="15.491104"
       fx="10.78257"
       cy="15.491104"
       cx="10.78257"
       gradientTransform="matrix(0.4044676,0,0,0.427577,4.3012139,2.476585)"
       gradientUnits="userSpaceOnUse"
       id="radialGradient4543"
       xlink:href="#linearGradient2322"
       inkscape:collect="always" />
    <radialGradient
       r="12.125"
       fy="27.875"
       fx="16"
       cy="27.875"
       cx="16"
       gradientTransform="matrix(1,0,0,0.2886598,0,19.828608)"
       gradientUnits="userSpaceOnUse"
       id="radialGradient4541"
       xlink:href="#linearGradient6917"
       inkscape:collect="always" />
    <linearGradient
       y2="51.027462"
       x2="26.1399"
       y1="20.92672"
       x1="25.593685"
       gradientUnits="userSpaceOnUse"
       id="linearGradient4516"
       xlink:href="#linearGradient2789-1-9"
       inkscape:collect="always" />
    <linearGradient
       y2="-4.2833176"
       x2="25.970385"
       y1="-6.8648982"
       x1="25.99827"
       gradientTransform="matrix(1.4418641,0,0,2.7755587,-13.524132,39.280185)"
       gradientUnits="userSpaceOnUse"
       id="linearGradient4514"
       xlink:href="#linearGradient5113-4-3"
       inkscape:collect="always" />
    <radialGradient
       r="17.709194"
       fy="15.491104"
       fx="10.78257"
       cy="15.491104"
       cx="10.78257"
       gradientTransform="matrix(0.4044676,0,0,0.427577,4.3012139,2.476585)"
       gradientUnits="userSpaceOnUse"
       id="radialGradient4512"
       xlink:href="#linearGradient2322-8-1"
       inkscape:collect="always" />
    <linearGradient
       y2="-49.625301"
       x2="23.732271"
       y1="-40.465305"
       x1="25.865906"
       gradientUnits="userSpaceOnUse"
       id="linearGradient4510"
       xlink:href="#linearGradient8028-8-6"
       inkscape:collect="always" />
    <radialGradient
       r="17.709194"
       fy="15.491104"
       fx="10.78257"
       cy="15.491104"
       cx="10.78257"
       gradientTransform="matrix(0.4044676,0,0,0.427577,4.3012139,2.476585)"
       gradientUnits="userSpaceOnUse"
       id="radialGradient4502"
       xlink:href="#linearGradient2322-8-1"
       inkscape:collect="always" />
    <linearGradient
       y2="-49.625301"
       x2="23.732271"
       y1="-40.465305"
       x1="25.865906"
       gradientUnits="userSpaceOnUse"
       id="linearGradient4500"
       xlink:href="#linearGradient8028-8-6"
       inkscape:collect="always" />
    <linearGradient
       y2="51.027462"
       x2="26.1399"
       y1="20.92672"
       x1="25.593685"
       gradientUnits="userSpaceOnUse"
       id="linearGradient4498"
       xlink:href="#linearGradient2789-1-9"
       inkscape:collect="always" />
    <linearGradient
       y2="51.027462"
       x2="26.1399"
       y1="20.92672"
       x1="25.593685"
       gradientUnits="userSpaceOnUse"
       id="linearGradient4485"
       xlink:href="#linearGradient2789-1-9"
       inkscape:collect="always" />
    <radialGradient
       r="17.709194"
       fy="15.491104"
       fx="10.78257"
       cy="15.491104"
       cx="10.78257"
       gradientTransform="matrix(0.4044676,0,0,0.427577,4.3012139,2.476585)"
       gradientUnits="userSpaceOnUse"
       id="radialGradient4483"
       xlink:href="#linearGradient2322-8-1"
       inkscape:collect="always" />
    <radialGradient
       r="17.709194"
       fy="15.491104"
       fx="10.78257"
       cy="15.491104"
       cx="10.78257"
       gradientTransform="matrix(0.4044676,0,0,0.427577,4.3012139,2.476585)"
       gradientUnits="userSpaceOnUse"
       id="radialGradient4477"
       xlink:href="#linearGradient2322-8-1"
       inkscape:collect="always" />
    <linearGradient
       y2="-49.625301"
       x2="23.732271"
       y1="-40.465305"
       x1="25.865906"
       gradientUnits="userSpaceOnUse"
       id="linearGradient4475"
       xlink:href="#linearGradient8028-8-6"
       inkscape:collect="always" />
    <linearGradient
       y2="51.027462"
       x2="26.1399"
       y1="20.92672"
       x1="25.593685"
       gradientUnits="userSpaceOnUse"
       id="linearGradient4473"
       xlink:href="#linearGradient2789-1-9"
       inkscape:collect="always" />
    <linearGradient
       y2="-4.2833176"
       x2="25.970385"
       y1="-6.8648982"
       x1="25.99827"
       gradientTransform="matrix(1.4418641,0,0,2.7755587,-13.524132,39.280185)"
       gradientUnits="userSpaceOnUse"
       id="linearGradient4465"
       xlink:href="#linearGradient5113-4-3"
       inkscape:collect="always" />
    <radialGradient
       r="12.125"
       fy="27.875"
       fx="16"
       cy="27.875"
       cx="16"
       gradientTransform="matrix(1,0,0,0.2886598,0,19.828608)"
       gradientUnits="userSpaceOnUse"
       id="radialGradient4463"
       xlink:href="#linearGradient6917-6"
       inkscape:collect="always" />
    <linearGradient
       inkscape:collect="always"
       xlink:href="#linearGradient5113-4-3"
       id="linearGradient4436"
       gradientUnits="userSpaceOnUse"
       gradientTransform="matrix(1.4418641,0,0,2.7755587,-13.524132,39.280185)"
       x1="25.99827"
       y1="-6.8648982"
       x2="25.970385"
       y2="-4.2833176" />
    <linearGradient
       id="linearGradient5113-4-3"
       inkscape:collect="always">
      <stop
         id="stop5115-2-0"
         offset="0"
         style="stop-color:white;stop-opacity:1;" />
      <stop
         id="stop5117-2-7"
         offset="1"
         style="stop-color:white;stop-opacity:0;" />
    </linearGradient>
    <linearGradient
       y2="-4.2833176"
       x2="25.970385"
       y1="-6.8648982"
       x1="25.99827"
       gradientTransform="matrix(1.4418641,0,0,2.7755587,-13.524132,39.280185)"
       gradientUnits="userSpaceOnUse"
       id="linearGradient4199-0-8"
       xlink:href="#linearGradient5113-4-3"
       inkscape:collect="always" />
    <radialGradient
       inkscape:collect="always"
       xlink:href="#linearGradient2322-8-1"
       id="radialGradient4400"
       gradientUnits="userSpaceOnUse"
       gradientTransform="matrix(0.4044676,0,0,0.427577,4.3012139,2.476585)"
       cx="10.78257"
       cy="15.491104"
       fx="10.78257"
       fy="15.491104"
       r="17.709194" />
    <linearGradient
       id="linearGradient2322-8-1">
      <stop
         id="stop2324-2-9"
         offset="0"
         style="stop-color:white;stop-opacity:1;" />
      <stop
         id="stop2326-2-7"
         offset="1"
         style="stop-color:#c1c7bc;stop-opacity:1;" />
    </linearGradient>
    <radialGradient
       r="17.709194"
       fy="15.491104"
       fx="10.78257"
       cy="15.491104"
       cx="10.78257"
       gradientTransform="matrix(0.4044676,0,0,0.427577,4.3012139,2.476585)"
       gradientUnits="userSpaceOnUse"
       id="radialGradient4193-6-2"
       xlink:href="#linearGradient2322-8-1"
       inkscape:collect="always" />
    <linearGradient
       inkscape:collect="always"
       xlink:href="#linearGradient8028-8-6"
       id="linearGradient4364"
       gradientUnits="userSpaceOnUse"
       x1="25.865906"
       y1="-40.465305"
       x2="23.732271"
       y2="-49.625301" />
    <linearGradient
       id="linearGradient8028-8-6"
       inkscape:collect="always">
      <stop
         id="stop8030-8-7"
         offset="0"
         style="stop-color:#ffffff;stop-opacity:1;" />
      <stop
         id="stop8032-4-5"
         offset="1"
         style="stop-color:#ffffff;stop-opacity:0;" />
    </linearGradient>
    <linearGradient
       y2="-49.625301"
       x2="23.732271"
       y1="-40.465305"
       x1="25.865906"
       gradientUnits="userSpaceOnUse"
       id="linearGradient4197-8-1"
       xlink:href="#linearGradient8028-8-6"
       inkscape:collect="always" />
    <linearGradient
       inkscape:collect="always"
       xlink:href="#linearGradient2789-1-9"
       id="linearGradient4330"
       gradientUnits="userSpaceOnUse"
       x1="25.593685"
       y1="20.92672"
       x2="26.1399"
       y2="51.027462" />
    <linearGradient
       id="linearGradient2789-1-9"
       inkscape:collect="always">
      <stop
         id="stop2791-2-8"
         offset="0"
         style="stop-color:white;stop-opacity:1;" />
      <stop
         id="stop2793-4-4"
         offset="1"
         style="stop-color:white;stop-opacity:0;" />
    </linearGradient>
    <linearGradient
       y2="51.027462"
       x2="26.1399"
       y1="20.92672"
       x1="25.593685"
       gradientUnits="userSpaceOnUse"
       id="linearGradient4195-4-1"
       xlink:href="#linearGradient2789-1-9"
       inkscape:collect="always" />
    <linearGradient
       id="linearGradient5113-4"
       inkscape:collect="always">
      <stop
         id="stop5115-2"
         offset="0"
         style="stop-color:white;stop-opacity:1;" />
      <stop
         id="stop5117-2"
         offset="1"
         style="stop-color:white;stop-opacity:0;" />
    </linearGradient>
    <linearGradient
       y2="-4.2833176"
       x2="25.970385"
       y1="-6.8648982"
       x1="25.99827"
       gradientTransform="matrix(1.4418641,0,0,2.7755587,-13.524132,39.280185)"
       gradientUnits="userSpaceOnUse"
       id="linearGradient4199-0"
       xlink:href="#linearGradient5113-4"
       inkscape:collect="always" />
    <linearGradient
       id="linearGradient8028-8"
       inkscape:collect="always">
      <stop
         id="stop8030-8"
         offset="0"
         style="stop-color:#ffffff;stop-opacity:1;" />
      <stop
         id="stop8032-4"
         offset="1"
         style="stop-color:#ffffff;stop-opacity:0;" />
    </linearGradient>
    <linearGradient
       y2="-49.625301"
       x2="23.732271"
       y1="-40.465305"
       x1="25.865906"
       gradientUnits="userSpaceOnUse"
       id="linearGradient4197-8"
       xlink:href="#linearGradient8028-8"
       inkscape:collect="always" />
    <linearGradient
       id="linearGradient2789-1"
       inkscape:collect="always">
      <stop
         id="stop2791-2"
         offset="0"
         style="stop-color:white;stop-opacity:1;" />
      <stop
         id="stop2793-4"
         offset="1"
         style="stop-color:white;stop-opacity:0;" />
    </linearGradient>
    <linearGradient
       y2="51.027462"
       x2="26.1399"
       y1="20.92672"
       x1="25.593685"
       gradientUnits="userSpaceOnUse"
       id="linearGradient4195-4"
       xlink:href="#linearGradient2789-1"
       inkscape:collect="always" />
    <linearGradient
       id="linearGradient2322-8">
      <stop
         id="stop2324-2"
         offset="0"
         style="stop-color:white;stop-opacity:1;" />
      <stop
         id="stop2326-2"
         offset="1"
         style="stop-color:#c1c7bc;stop-opacity:1;" />
    </linearGradient>
    <radialGradient
       r="17.709194"
       fy="15.491104"
       fx="10.78257"
       cy="15.491104"
       cx="10.78257"
       gradientTransform="matrix(0.4044676,0,0,0.427577,4.3012139,2.476585)"
       gradientUnits="userSpaceOnUse"
       id="radialGradient4193-6"
       xlink:href="#linearGradient2322-8"
       inkscape:collect="always" />
    <linearGradient
       id="linearGradient6917-6"
       inkscape:collect="always">
      <stop
         id="stop6919-5"
         offset="0"
         style="stop-color:#000000;stop-opacity:1;" />
      <stop
         id="stop6921-1"
         offset="1"
         style="stop-color:#000000;stop-opacity:0;" />
    </linearGradient>
    <radialGradient
       r="12.125"
       fy="27.875"
       fx="16"
       cy="27.875"
       cx="16"
       gradientTransform="matrix(1,0,0,0.2886598,0,19.828608)"
       gradientUnits="userSpaceOnUse"
       id="radialGradient4191-0"
       xlink:href="#linearGradient6917-6"
       inkscape:collect="always" />
    <linearGradient
       y2="-4.2833176"
       x2="25.970385"
       y1="-6.8648982"
       x1="25.99827"
       gradientTransform="matrix(1.4418641,0,0,2.7755587,-13.524132,39.280185)"
       gradientUnits="userSpaceOnUse"
       id="linearGradient4199"
       xlink:href="#linearGradient5113"
       inkscape:collect="always" />
    <linearGradient
       y2="-49.625301"
       x2="23.732271"
       y1="-40.465305"
       x1="25.865906"
       gradientUnits="userSpaceOnUse"
       id="linearGradient4197"
       xlink:href="#linearGradient8028"
       inkscape:collect="always" />
    <linearGradient
       y2="51.027462"
       x2="26.1399"
       y1="20.92672"
       x1="25.593685"
       gradientUnits="userSpaceOnUse"
       id="linearGradient4195"
       xlink:href="#linearGradient2789"
       inkscape:collect="always" />
    <radialGradient
       r="17.709194"
       fy="15.491104"
       fx="10.78257"
       cy="15.491104"
       cx="10.78257"
       gradientTransform="matrix(0.4044676,0,0,0.427577,4.3012139,2.476585)"
       gradientUnits="userSpaceOnUse"
       id="radialGradient4193"
       xlink:href="#linearGradient2322"
       inkscape:collect="always" />
    <radialGradient
       r="12.125"
       fy="27.875"
       fx="16"
       cy="27.875"
       cx="16"
       gradientTransform="matrix(1,0,0,0.2886598,0,19.828608)"
       gradientUnits="userSpaceOnUse"
       id="radialGradient4191"
       xlink:href="#linearGradient6917"
       inkscape:collect="always" />
    <radialGradient
       inkscape:collect="always"
       xlink:href="#linearGradient2322-6"
       id="radialGradient4161"
       gradientUnits="userSpaceOnUse"
       gradientTransform="matrix(0.4044676,0,0,0.427577,4.3012139,2.476585)"
       cx="10.78257"
       cy="15.491104"
       fx="10.78257"
       fy="15.491104"
       r="17.709194" />
    <linearGradient
       id="linearGradient2322-6">
      <stop
         id="stop2324-0"
         offset="0"
         style="stop-color:white;stop-opacity:1;" />
      <stop
         id="stop2326-6"
         offset="1"
         style="stop-color:#c1c7bc;stop-opacity:1;" />
    </linearGradient>
    <radialGradient
       r="17.709194"
       fy="15.491104"
       fx="10.78257"
       cy="15.491104"
       cx="10.78257"
       gradientTransform="matrix(0.4044676,0,0,0.427577,4.3012139,2.476585)"
       gradientUnits="userSpaceOnUse"
       id="radialGradient4113-4"
       xlink:href="#linearGradient2322-6"
       inkscape:collect="always" />
    <linearGradient
       y2="-49.625301"
       x2="23.732271"
       y1="-40.465305"
       x1="25.865906"
       gradientUnits="userSpaceOnUse"
       id="linearGradient4130"
       xlink:href="#linearGradient8028"
       inkscape:collect="always" />
    <linearGradient
       y2="51.027462"
       x2="26.1399"
       y1="20.92672"
       x1="25.593685"
       gradientUnits="userSpaceOnUse"
       id="linearGradient4128"
       xlink:href="#linearGradient2789"
       inkscape:collect="always" />
    <linearGradient
       y2="-4.2833176"
       x2="25.970385"
       y1="-6.8648982"
       x1="25.99827"
       gradientTransform="matrix(1.4418641,0,0,2.7755587,-13.524132,39.280185)"
       gradientUnits="userSpaceOnUse"
       id="linearGradient4120"
       xlink:href="#linearGradient5113"
       inkscape:collect="always" />
    <linearGradient
       y2="-49.625301"
       x2="23.732271"
       y1="-40.465305"
       x1="25.865906"
       gradientUnits="userSpaceOnUse"
       id="linearGradient4117"
       xlink:href="#linearGradient8028"
       inkscape:collect="always" />
    <linearGradient
       y2="51.027462"
       x2="26.1399"
       y1="20.92672"
       x1="25.593685"
       gradientUnits="userSpaceOnUse"
       id="linearGradient4115"
       xlink:href="#linearGradient2789"
       inkscape:collect="always" />
    <radialGradient
       r="17.709194"
       fy="15.491104"
       fx="10.78257"
       cy="15.491104"
       cx="10.78257"
       gradientTransform="matrix(0.4044676,0,0,0.427577,4.3012139,2.476585)"
       gradientUnits="userSpaceOnUse"
       id="radialGradient4113"
       xlink:href="#linearGradient2322"
       inkscape:collect="always" />
    <linearGradient
       y2="-1.6083169"
       x2="43.502598"
       y1="-11.068471"
       x1="18.396891"
       gradientTransform="matrix(1.4269719,0,0,2.773662,-12.584199,37.876761)"
       gradientUnits="userSpaceOnUse"
       id="linearGradient4104"
       xlink:href="#linearGradient5113"
       inkscape:collect="always" />
    <radialGradient
       r="17.709194"
       fy="15.491104"
       fx="10.78257"
       cy="15.491104"
       cx="10.78257"
       gradientTransform="matrix(0.4044676,0,0,0.427577,4.3012139,2.476585)"
       gradientUnits="userSpaceOnUse"
       id="radialGradient3917"
       xlink:href="#linearGradient2322"
       inkscape:collect="always" />
    <radialGradient
       r="12.125"
       fy="27.875"
       fx="16"
       cy="27.875"
       cx="16"
       gradientTransform="matrix(1,0,0,0.2886598,0,19.828608)"
       gradientUnits="userSpaceOnUse"
       id="radialGradient3915"
       xlink:href="#linearGradient6917"
       inkscape:collect="always" />
    <linearGradient
       y2="-49.625301"
       x2="23.732271"
       y1="-40.465305"
       x1="25.865906"
       gradientUnits="userSpaceOnUse"
       id="linearGradient3909"
       xlink:href="#linearGradient8028"
       inkscape:collect="always" />
    <linearGradient
       y2="51.027462"
       x2="26.1399"
       y1="20.92672"
       x1="25.593685"
       gradientUnits="userSpaceOnUse"
       id="linearGradient3907"
       xlink:href="#linearGradient2789"
       inkscape:collect="always" />
    <linearGradient
       y2="-1.6083169"
       x2="43.502598"
       y1="-11.068471"
       x1="18.396891"
       gradientTransform="matrix(1.4269719,0,0,2.773662,-12.584199,37.876761)"
       gradientUnits="userSpaceOnUse"
       id="linearGradient3903"
       xlink:href="#linearGradient5113"
       inkscape:collect="always" />
    <linearGradient
       id="linearGradient5113"
       inkscape:collect="always">
      <stop
         id="stop5115"
         offset="0"
         style="stop-color:white;stop-opacity:1;" />
      <stop
         id="stop5117"
         offset="1"
         style="stop-color:white;stop-opacity:0;" />
    </linearGradient>
    <linearGradient
       id="linearGradient2276">
      <stop
         id="stop2278"
         offset="0"
         style="stop-color:#f57900;stop-opacity:1;" />
      <stop
         id="stop2280"
         offset="1"
         style="stop-color:#fcaf3e;stop-opacity:1;" />
    </linearGradient>
    <linearGradient
       id="linearGradient2322">
      <stop
         id="stop2324"
         offset="0"
         style="stop-color:white;stop-opacity:1;" />
      <stop
         id="stop2326"
         offset="1"
         style="stop-color:#c1c7bc;stop-opacity:1;" />
    </linearGradient>
    <linearGradient
       id="linearGradient2789"
       inkscape:collect="always">
      <stop
         id="stop2791"
         offset="0"
         style="stop-color:white;stop-opacity:1;" />
      <stop
         id="stop2793"
         offset="1"
         style="stop-color:white;stop-opacity:0;" />
    </linearGradient>
    <linearGradient
       id="linearGradient6917"
       inkscape:collect="always">
      <stop
         id="stop6919"
         offset="0"
         style="stop-color:#000000;stop-opacity:1;" />
      <stop
         id="stop6921"
         offset="1"
         style="stop-color:#000000;stop-opacity:0;" />
    </linearGradient>
    <linearGradient
       id="linearGradient8028"
       inkscape:collect="always">
      <stop
         id="stop8030"
         offset="0"
         style="stop-color:#ffffff;stop-opacity:1;" />
      <stop
         id="stop8032"
         offset="1"
         style="stop-color:#ffffff;stop-opacity:0;" />
    </linearGradient>
    <radialGradient
       inkscape:collect="always"
       xlink:href="#linearGradient2322"
       id="radialGradient5425"
       gradientUnits="userSpaceOnUse"
       gradientTransform="matrix(0.4044676,0,0,0.427577,4.3012139,2.476585)"
       cx="10.78257"
       cy="15.491104"
       fx="10.78257"
       fy="15.491104"
       r="17.709194" />
    <linearGradient
       inkscape:collect="always"
       xlink:href="#linearGradient2789"
       id="linearGradient5427"
       gradientUnits="userSpaceOnUse"
       x1="25.593685"
       y1="20.92672"
       x2="26.1399"
       y2="51.027462" />
    <linearGradient
       inkscape:collect="always"
       xlink:href="#linearGradient8028"
       id="linearGradient5429"
       gradientUnits="userSpaceOnUse"
       x1="25.865906"
       y1="-40.465305"
       x2="23.732271"
       y2="-49.625301" />
    <linearGradient
       inkscape:collect="always"
       xlink:href="#linearGradient5113"
       id="linearGradient5431"
       gradientUnits="userSpaceOnUse"
       gradientTransform="matrix(1.4418641,0,0,2.7755587,-13.524132,39.280185)"
       x1="25.99827"
       y1="-6.8648982"
       x2="25.970385"
       y2="-4.2833176" />
    <radialGradient
       inkscape:collect="always"
       xlink:href="#linearGradient6917"
       id="radialGradient5433"
       gradientUnits="userSpaceOnUse"
       gradientTransform="matrix(1,0,0,0.2886598,0,19.828608)"
       cx="16"
       cy="27.875"
       fx="16"
       fy="27.875"
       r="12.125" />
    <radialGradient
       r="349.74908"
       fy="548.3847"
       fx="332.17453"
       cy="548.3847"
       cx="332.17453"
       gradientTransform="matrix(0.0720138,0.01394894,-0.00502044,0.03380686,-165.85263,1002.6258)"
       gradientUnits="userSpaceOnUse"
       id="radialGradient4083"
       xlink:href="#linearGradient10691-6-4"
       inkscape:collect="always" />
    <linearGradient
       id="linearGradient10691-6-4">
      <stop
         offset="0"
         style="stop-color:#000000;stop-opacity:1"
         id="stop10693-9-0" />
      <stop
         offset="1"
         style="stop-color:#000000;stop-opacity:0"
         id="stop10695-9-8" />
    </linearGradient>
    <radialGradient
       inkscape:collect="always"
       xlink:href="#linearGradient10691-6"
       id="radialGradient5278"
       gradientUnits="userSpaceOnUse"
       gradientTransform="matrix(0.06092055,0.01675307,-0.00424708,0.04060297,23.880367,992.28137)"
       cx="332.17453"
       cy="548.3847"
       fx="332.17453"
       fy="548.3847"
       r="349.74908" />
    <linearGradient
       id="linearGradient10691-6">
      <stop
         offset="0"
         style="stop-color:#000000;stop-opacity:1"
         id="stop10693-9" />
      <stop
         offset="1"
         style="stop-color:#000000;stop-opacity:0"
         id="stop10695-9" />
    </linearGradient>
    <linearGradient
       inkscape:collect="always"
       xlink:href="#linearGradient5048-7"
       id="linearGradient5274"
       gradientUnits="userSpaceOnUse"
       gradientTransform="matrix(0.10755066,0,0,0.10755066,-1.6365061,971.51883)"
       x1="82.85714"
       y1="483.79074"
       x2="62.85714"
       y2="272.36218" />
    <linearGradient
       id="linearGradient5048-7">
      <stop
         style="stop-color:#a9a9a9;stop-opacity:1;"
         offset="0"
         id="stop5050-7" />
      <stop
         style="stop-color:#ffffff;stop-opacity:1;"
         offset="1"
         id="stop5052-3" />
    </linearGradient>
    <linearGradient
       inkscape:collect="always"
       xlink:href="#linearGradient3752"
       id="linearGradient3758"
       x1="5.375"
       y1="1008.8622"
       x2="23.125"
       y2="1014.3622"
       gradientUnits="userSpaceOnUse"
       gradientTransform="matrix(1.0571968,0,0,0.99328607,-0.57223469,6.4950504)" />
    <linearGradient
       id="linearGradient3752">
      <stop
         style="stop-color:#868b7f;stop-opacity:1;"
         offset="0"
         id="stop3754" />
      <stop
         style="stop-color:#93988d;stop-opacity:1;"
         offset="1"
         id="stop3756" />
    </linearGradient>
    <linearGradient
       inkscape:collect="always"
       xlink:href="#linearGradient5336"
       id="linearGradient5342"
       x1="4.5338812"
       y1="1023.5061"
       x2="23.542774"
       y2="1023.5061"
       gradientUnits="userSpaceOnUse" />
    <linearGradient
       id="linearGradient5336">
      <stop
         style="stop-color:#204a87;stop-opacity:1;"
         offset="0"
         id="stop5338" />
      <stop
         style="stop-color:#2658a1;stop-opacity:1;"
         offset="1"
         id="stop5340" />
    </linearGradient>
    <linearGradient
       inkscape:collect="always"
       xlink:href="#linearGradient5064"
       id="linearGradient5294"
       x1="68.432838"
       y1="996.72101"
       x2="22.963083"
       y2="1025.6077"
       gradientUnits="userSpaceOnUse"
       spreadMethod="pad"
       gradientTransform="matrix(0.99138559,0,0,0.99138559,0.39247609,8.7194524)" />
    <linearGradient
       id="linearGradient5064">
      <stop
         style="stop-color:#ad1113;stop-opacity:1;"
         offset="0"
         id="stop5066" />
      <stop
         style="stop-color:#ea2d2f;stop-opacity:1;"
         offset="1"
         id="stop5068" />
    </linearGradient>
    <linearGradient
       inkscape:collect="always"
       xlink:href="#linearGradient3561"
       id="linearGradient5286"
       x1="46.094639"
       y1="991.86621"
       x2="45.917759"
       y2="1032.5216"
       gradientUnits="userSpaceOnUse"
       gradientTransform="matrix(0.99138559,0,0,0.99138559,0.39247609,8.7194524)" />
    <linearGradient
       id="linearGradient3561">
      <stop
         style="stop-color:#e54d4f;stop-opacity:1;"
         offset="0"
         id="stop3563" />
      <stop
         style="stop-color:#c71d1f;stop-opacity:1;"
         offset="1"
         id="stop3565" />
    </linearGradient>
    <linearGradient
       inkscape:collect="always"
       xlink:href="#linearGradient5320"
       id="linearGradient5326"
       x1="23.279085"
       y1="1008.6843"
       x2="68.062386"
       y2="1008.6843"
       gradientUnits="userSpaceOnUse"
       gradientTransform="matrix(0.98813312,0,0,1.0002835,0.45358064,-0.28594893)" />
    <linearGradient
       id="linearGradient5320">
      <stop
         style="stop-color:#2e3436;stop-opacity:1;"
         offset="0"
         id="stop5322" />
      <stop
         style="stop-color:#3d4548;stop-opacity:1;"
         offset="1"
         id="stop5324" />
    </linearGradient>
    <linearGradient
       inkscape:collect="always"
       xlink:href="#linearGradient5320"
       id="linearGradient5334"
       x1="23.279085"
       y1="1008.6843"
       x2="68.062386"
       y2="1008.6843"
       gradientUnits="userSpaceOnUse"
       gradientTransform="matrix(0.98813312,0,0,1.0002835,0.45358064,-0.28594893)" />
    <linearGradient
       id="linearGradient4196">
      <stop
         style="stop-color:#2e3436;stop-opacity:1;"
         offset="0"
         id="stop4198" />
      <stop
         style="stop-color:#3d4548;stop-opacity:1;"
         offset="1"
         id="stop4200" />
    </linearGradient>
    <linearGradient
       inkscape:collect="always"
       xlink:href="#linearGradient6621-5"
       id="linearGradient5317"
       gradientUnits="userSpaceOnUse"
       gradientTransform="matrix(0.10153351,0,0,0.10755066,-0.22624287,971.51883)"
       x1="250.25342"
       y1="384.7225"
       x2="381.33484"
       y2="261.48389" />
    <linearGradient
       id="linearGradient6621-5">
      <stop
         offset="0"
         style="stop-color:#ffffff;stop-opacity:1;"
         id="stop6622-2" />
      <stop
         offset="1"
         style="stop-color:#b4b4b4;stop-opacity:1;"
         id="stop6623-8" />
    </linearGradient>
    <linearGradient
       inkscape:collect="always"
       xlink:href="#linearGradient6621-5"
       id="linearGradient5314"
       gradientUnits="userSpaceOnUse"
       gradientTransform="matrix(0.10153351,0,0,0.10755066,-0.22624287,971.51883)"
       x1="525.62781"
       y1="374.7796"
       x2="623.49896"
       y2="266.6933" />
    <linearGradient
       id="linearGradient4207">
      <stop
         offset="0"
         style="stop-color:#ffffff;stop-opacity:1;"
         id="stop4209" />
      <stop
         offset="1"
         style="stop-color:#b4b4b4;stop-opacity:1;"
         id="stop4211" />
    </linearGradient>
    <linearGradient
       inkscape:collect="always"
       xlink:href="#linearGradient6621-5"
       id="linearGradient5311"
       gradientUnits="userSpaceOnUse"
       gradientTransform="matrix(0.10153351,0,0,0.10755066,-0.22624287,971.51883)"
       x1="421.76111"
       y1="381.15768"
       x2="496.73724"
       y2="256.90894" />
    <linearGradient
       id="linearGradient4214">
      <stop
         offset="0"
         style="stop-color:#ffffff;stop-opacity:1;"
         id="stop4216" />
      <stop
         offset="1"
         style="stop-color:#b4b4b4;stop-opacity:1;"
         id="stop4218" />
    </linearGradient>
    <filter
       color-interpolation-filters="sRGB"
       inkscape:collect="always"
       id="filter5430-6"
       x="-0.12"
       width="1.24"
       y="-0.12"
       height="1.24">
      <feGaussianBlur
         inkscape:collect="always"
         stdDeviation="1.5714286"
         id="feGaussianBlur5432-4" />
    </filter>
    <filter
       color-interpolation-filters="sRGB"
       inkscape:collect="always"
       id="filter5430-0-9"
       x="-0.12"
       width="1.24"
       y="-0.12"
       height="1.24">
      <feGaussianBlur
         inkscape:collect="always"
         stdDeviation="1.5714286"
         id="feGaussianBlur5432-8-6" />
    </filter>
  </defs>
  <sodipodi:namedview
     id="base"
     pagecolor="#ffffff"
     bordercolor="#666666"
     borderopacity="1.0"
     inkscape:pageopacity="0.0"
     inkscape:pageshadow="2"
     inkscape:zoom="2.8"
     inkscape:cx="170.31663"
     inkscape:cy="17.611804"
     inkscape:document-units="px"
     inkscape:current-layer="layer1"
     showgrid="false"
     inkscape:window-width="1440"
     inkscape:window-height="825"
     inkscape:window-x="0"
     inkscape:window-y="24"
     inkscape:window-maximized="1" />
  <metadata
     id="metadata7">
    <rdf:RDF>
      <cc:Work
         rdf:about="">
        <dc:format>image/svg+xml</dc:format>
        <dc:type
           rdf:resource="http://purl.org/dc/dcmitype/StillImage" />
        <dc:title />
      </cc:Work>
    </rdf:RDF>
  </metadata>
  <g
     inkscape:label="Layer 1"
     inkscape:groupmode="layer"
     id="layer1"
     transform="translate(0,-992.36217)">
    <text
       xml:space="preserve"
       style="font-size:41.11594772px;font-style:normal;font-variant:normal;font-weight:bold;font-stretch:normal;text-align:start;line-height:125%;letter-spacing:0px;word-spacing:0px;writing-mode:lr-tb;text-anchor:start;fill:#eeeeec;fill-opacity:1;stroke:none;font-family:Ubuntu;-inkscape-font-specification:Ubuntu Bold"
       x="75.473228"
       y="1038.0273"
       id="text3245"
       sodipodi:linespacing="125%"><tspan
         sodipodi:role="line"
         id="tspan3247"
         x="75.473228"
         y="1038.0273">Tube Chaser</tspan></text>
    <text
       xml:space="preserve"
       style="font-size:41.11594772px;font-style:normal;font-variant:normal;font-weight:bold;font-stretch:normal;text-align:start;line-height:125%;letter-spacing:0px;word-spacing:0px;writing-mode:lr-tb;text-anchor:start;fill:#eeeeec;fill-opacity:1;stroke:none;font-family:Ubuntu;-inkscape-font-specification:Ubuntu Bold"
       x="75.473465"
       y="1038.0273"
       id="text3245-1"
       sodipodi:linespacing="125%"><tspan
         sodipodi:role="line"
         id="tspan3247-2"
         x="75.473465"
         y="1038.0273">Tube Chaser</tspan></text>
    <g
       transform="translate(-1.9986067,6.8615833)"
       id="g4120">
      <rect
         transform="matrix(0.9877227,-0.15621737,0.17994613,0.98367647,0,0)"
         y="1013.2602"
         x="-168.66837"
         height="27.241407"
         width="53.379513"
         id="rect5282-5-0"
         style="fill:url(#radialGradient4083);fill-opacity:1;stroke:none" />
      <rect
         transform="matrix(0.99731664,0.07320871,-0.01867052,0.99982569,0,0)"
         y="1005.0536"
         x="21.498383"
         height="32.717686"
         width="45.156757"
         id="rect5282-5"
         style="fill:url(#radialGradient5278);fill-opacity:1;stroke:none" />
      <path
         sodipodi:nodetypes="ccccccc"
         inkscape:connector-curvature="0"
         id="rect4203-9"
         d="m 4.577121,1018.9372 19.364447,12.3985 42.795666,0.619 -0.0793,4.4563 -43.100054,0.832 -19.0084061,-16.316 z"
         style="fill:#333333;fill-opacity:1;stroke:none" />
      <path
         sodipodi:nodetypes="ccccccc"
         inkscape:connector-curvature="0"
         id="path4043-6"
         d="m 55.008914,993.54152 c -9.09209,-4.59867 -43.16931,7.06998 -45.3256301,7.66898 -2.44716,0.6522 -4.62469,3.1439 -5.10001,4.6783 -0.049,1.5141 -0.30612,8.2667 -0.31962,12.615 l 19.5813201,14.2694 c 0,0 -0.68048,-24.1988 1.38373,-28.9791 7.35852,-9.28445 16.19989,-12.69704 29.78021,-10.25258 z"
         style="fill:url(#linearGradient5274);fill-opacity:1;stroke:#2e3436;stroke-width:0.60000002;stroke-linecap:butt;stroke-linejoin:miter;stroke-miterlimit:4;stroke-opacity:1;stroke-dasharray:none" />
      <path
         inkscape:connector-curvature="0"
         id="path3717"
         d="m 14.028092,1016.0347 c -0.0039,0.068 -0.0085,0.1322 -0.0059,0.2473 0.0069,0.3061 -0.0045,0.9449 -0.02985,1.4153 -0.03697,0.6871 -0.01914,0.6101 0.08738,-0.3788 0.06434,-0.5977 0.08381,-1.0487 0.06097,-1.2755 l -0.112555,-0.01 z m -9.2554721,-0.4131 c -0.023894,-0.012 -0.052341,0.015 -0.090078,0.062 -0.1124842,0.1494 -0.401058,3.0678 -0.3182058,3.2242 0.028918,0.055 0.1493678,0.1075 0.2596656,0.1157 0.2421567,0.018 0.2816748,-0.3579 0.2520244,-2.0593 -0.016819,-0.965 -0.031203,-1.3139 -0.1034837,-1.3428 z m 1.4816222,0.4129 c -0.01883,0.012 -0.035742,0.018 -0.059667,0.036 -0.1825287,0.1518 -0.440172,3.6481 -0.2770302,3.764 0.2938439,0.2086 0.3764784,-0.1075 0.4324325,-1.8396 0.051484,-1.5947 0.035326,-1.9956 -0.095771,-1.9614 z m 1.6709025,0.5235 c -0.036605,0.014 -0.0781,0.045 -0.1518499,0.1263 -0.1247064,0.1368 -0.2006655,0.4638 -0.2665586,1.1912 -0.049982,0.552 -0.1315782,1.4071 -0.1823949,1.8994 -0.092312,0.8941 -0.091725,0.8921 0.186409,1.0186 0.3162053,0.1438 0.2980756,0.3519 0.023014,0.4147 l 1.7120737,1.0631 c -0.1415404,-0.2541 -0.3446876,-0.4319 -0.5804648,-0.5249 -0.4880635,-0.1926 -0.572242,-0.2959 -0.3856344,-0.4828 0.1618338,-0.1622 0.2408733,-1.0388 0.2345606,-2.5424 -0.00257,-0.6128 -0.031191,-0.7805 -0.2190003,-0.966 -0.1596314,-0.1575 -0.2261857,-0.3425 -0.2067441,-0.5934 0.015118,-0.1972 -0.010448,-0.4268 -0.057459,-0.5134 -0.036631,-0.068 -0.069133,-0.095 -0.1059772,-0.09 z m 2.045436,1.1429 c -0.085117,-0.01 -0.1500283,0.2157 -0.1962265,0.6736 -0.037582,0.3722 -0.13145,1.1989 -0.2201925,1.8415 -0.088747,0.6427 -0.1405004,1.2784 -0.1154116,1.4227 0.034477,0.1985 0.1115452,0.2698 0.3167157,0.2851 l 0.2674023,0.02 0.03282,-1.2776 c 0.06532,-2.3632 0.04784,-2.9553 -0.085136,-2.9652 z m 1.9550414,0.8611 c -0.03939,0 -0.09203,0.038 -0.178923,0.1101 -0.174924,0.1455 -0.22766,0.4123 -0.402763,2.1721 -0.109611,1.1014 -0.186034,2.0639 -0.160155,2.1489 0.02979,0.098 0.186846,0.1652 0.424118,0.1828 l 0.380057,0.029 0.04947,-1.4827 c 0.0272,-0.8175 0.04033,-1.6466 0.0361,-1.8416 -0.0041,-0.1946 0.0043,-0.5207 0.01547,-0.7144 0.01117,-0.1936 -0.01145,-0.4129 -0.05856,-0.4998 -0.03746,-0.07 -0.06469,-0.1052 -0.10483,-0.1041 z m 2.023495,0.1916 -0.10478,0.4188 c -0.05242,0.2275 -0.141923,0.4758 -0.21439,0.5483 -0.07253,0.072 -0.238548,0.7607 -0.36579,1.5417 -0.212317,1.3031 -0.262276,1.4428 -0.516533,1.6543 -0.287488,0.2393 -0.320259,0.4718 -0.06811,0.4905 0.08002,0.01 0.190619,-0.1218 0.235542,-0.2852 0.08043,-0.2925 0.0792,-0.282 0.117798,0.1189 0.02158,0.2237 0.02649,0.5402 0.01268,0.7166 -0.02742,0.3531 0.05409,0.446 0.51973,0.5753 0.222046,0.062 0.313931,0.1448 0.302642,0.2841 -0.0086,0.1062 -0.05966,0.1566 -0.198514,0.178 l 3.033722,1.8769 c 0.0573,0.01 0.112655,0 0.170233,0 0.394871,-0.026 0.584495,0.1388 0.544901,0.4395 l 0.931229,0.5647 c 0.112745,-2.6871 0.123175,-2.8632 0.255648,-2.8022 0.13888,0.064 0.176574,1.2977 0.07287,2.5927 -0.01569,0.1957 -0.03465,0.3152 -0.01922,0.4115 l 0.539696,0.3291 c 0.07345,0.017 0.126903,0.037 0.221903,0.058 0.423702,0.097 0.425367,0.09 0.512616,-0.2096 0.141925,-0.4872 0.343813,-0.1922 0.227822,0.3336 l -0.07218,0.3662 0.85011,0.5173 c -0.0023,-0.06 -0.01887,-0.1159 -0.01374,-0.1799 0.04232,-0.5218 0.212269,-0.6009 0.500754,-0.238 0.09492,0.1194 0.297555,0.2286 0.461908,0.2408 0.441353,0.033 1.09308,0.3152 1.080865,0.4657 -0.006,0.072 -0.04763,0.1012 -0.104093,0.062 -0.05642,-0.041 -0.167152,-0.029 -0.242493,0.024 -0.07554,0.051 -0.359414,0.1228 -0.621894,0.1598 -0.07103,0.017 -0.101443,0.02 -0.172224,0.028 l 0.944195,0.5794 0.0056,-0.068 0.295578,0.022 c -0.01559,-0.1803 0.01978,-1.1968 0.08048,-2.3887 0.06341,-1.2454 0.107426,-2.4669 0.107136,-2.7171 -2.9e-4,-0.2501 0.01644,-0.6297 0.02656,-0.8513 l 0.0192,-0.4114 -0.141451,0.3474 -0.141458,0.3473 -0.05782,-0.3347 c -0.07935,-0.404 -0.221536,-0.5093 -0.453024,-0.3503 -0.09746,0.067 -0.257184,0.1088 -0.360728,0.084 -0.164624,-0.04 -0.189054,0.029 -0.24366,0.56 -0.100569,0.981 -0.17272,1.0817 -0.429966,0.5873 -0.170839,-0.3283 -0.178386,-0.3254 -0.274869,-0.1027 -0.05372,0.1239 -0.111826,0.5177 -0.12843,0.885 -0.02982,0.6593 -0.231443,1.0318 -0.299958,0.5558 -0.13176,-0.9155 -0.145692,-1.5233 -0.03242,-1.6952 0.180257,-0.2738 0.07954,-0.9575 -0.147514,-0.9744 -0.378461,-0.028 -0.599698,-0.813 -0.650657,-2.2779 -0.0059,-0.1684 -0.04167,-0.078 -0.07295,0.201 -0.06314,0.5636 -0.31038,0.9403 -0.612528,0.9177 -0.158375,-0.011 -0.202397,0.051 -0.223685,0.3138 -0.03103,0.3822 -0.293009,0.7168 -0.459228,0.5989 -0.06313,-0.045 -0.08751,-0.3176 -0.06268,-0.6239 0.03296,-0.4064 -0.0029,-0.5747 -0.118962,-0.6283 -0.310118,-0.143 -0.355489,0.086 -0.34173,1.4197 0.0076,0.7409 -0.04436,1.4769 -0.10946,1.6984 l -0.116629,0.3904 -0.0556,-0.3619 c -0.05293,-0.3291 -0.09786,-1.0971 -0.101661,-1.7141 -9.03e-4,-0.1389 -0.0063,-0.3369 -0.0067,-0.4409 -7.01e-4,-0.1564 -0.02689,-0.1747 -0.163312,-0.081 -0.141668,0.097 -0.163493,0.061 -0.147806,-0.2724 0.02579,-0.552 0.0108,-0.8445 -0.07758,-1.3133 -0.0425,-0.2253 -0.09006,-0.6372 -0.109729,-0.9164 l -0.04334,-0.5125 -0.06699,0.4767 c -0.05943,0.3911 -0.129641,0.5115 -0.394397,0.6726 -0.232202,0.1414 -0.332693,0.2889 -0.35293,0.5104 -0.01556,0.169 -0.08808,0.3734 -0.164403,0.4558 -0.169153,0.1828 -0.626107,0.3876 -0.837799,0.378 -0.08972,-0.01 -0.173979,0.1046 -0.205171,0.2601 -0.03979,0.1972 0.01878,0.3167 0.20377,0.4555 0.3113,0.2336 0.308938,0.6743 -0.0025,0.7292 -0.183209,0.032 -0.215616,0.1178 -0.268834,0.6957 -0.0608,0.6604 -0.06274,0.6626 -0.166277,0.3042 -0.104702,-0.3627 -0.128161,-1.309 -0.06737,-3.1842 0.04061,-1.2529 -0.13382,-2.1554 -0.428785,-2.22 -0.161076,-0.035 -0.231257,-0.1939 -0.313793,-0.6703 l -0.106005,-0.6134 z m 6.018656,1.0393 c -0.01155,0.011 -0.02979,0.049 -0.03703,0.1074 -0.0131,0.1056 0.0093,0.158 0.04633,0.1273 0.03696,-0.031 0.0536,-0.1158 0.02961,-0.1905 -0.01328,-0.042 -0.02711,-0.054 -0.03892,-0.044 z m -13.6486027,0.6779 0.4726528,0.2827 c -0.1150825,-0.1937 -0.2201453,-0.2546 -0.4726528,-0.2827 z m 4.4264207,1.8155 c -0.01618,-0.019 -0.0438,0.037 -0.05556,0.161 l 0.01401,-6e-4 c -0.0156,0.1658 -0.006,0.2469 0.0278,0.181 0.03356,-0.066 0.0427,-0.2013 0.02441,-0.301 -0.0045,-0.026 -0.0053,-0.036 -0.01069,-0.041 z m 6.884589,0.6634 c -0.01167,0.011 -0.02979,0.049 -0.03703,0.1073 -0.01311,0.1056 0.0081,0.1717 0.04522,0.141 0.03696,-0.031 0.05358,-0.1157 0.0296,-0.1905 -0.01328,-0.042 -0.026,-0.068 -0.03777,-0.058 z m -7.521259,-0.1465 0.727887,0.4533 c -0.117367,-0.2948 -0.195741,-0.3493 -0.588245,-0.4292 -0.05724,-0.014 -0.08215,-0.016 -0.139619,-0.024 z m 7.24466,0.9379 c 0.01167,-0.011 0.02549,0 0.03892,0.044 0.02396,0.075 0.02149,0.1608 -0.01553,0.1914 -0.03695,0.031 -0.05941,-0.021 -0.04632,-0.1273 0.0073,-0.058 0.01118,-0.099 0.02295,-0.1083 z m 1.448269,0.3003 c 0.02142,-0.012 0.03374,-0.013 0.04179,0 0.01634,0.024 0.0076,0.094 -0.01775,0.2189 -0.03188,0.1568 -0.122657,0.2983 -0.19553,0.3157 -0.192453,0.046 -0.126213,-0.3331 0.08106,-0.4756 0.03826,-0.027 0.06855,-0.051 0.08998,-0.063 z m -2.639809,-0.1 c 0.01156,-5e-4 0.01553,0.024 0.02481,0.043 0.02334,0.051 -0.0046,0.2049 -0.0559,0.34 -0.07785,0.2051 -0.09666,0.2178 -0.147414,0.071 -0.04753,-0.1371 0.05228,-0.3946 0.135166,-0.4441 0.01374,-0.011 0.0321,-0.015 0.04307,-0.014 z m 1.23049,0.3667 c 0.05694,0.01 0.09414,0.061 0.08965,0.1169 -0.0045,0.055 -0.04944,0.093 -0.106248,0.089 -0.05696,-0.01 -0.109367,-0.048 -0.10483,-0.1041 0.0045,-0.055 0.0646,-0.1058 0.121445,-0.1014 z m -5.368202,-0.33 0.633787,0.3912 c -0.142907,-0.1822 -0.371331,-0.3167 -0.633787,-0.3912 z m 5.718457,2.8198 c 0.08702,0 0.159122,0.1332 0.143375,0.3274 -0.01066,0.1315 -0.06968,0.2667 -0.122944,0.2935 -0.115629,0.058 -0.209406,-0.4393 -0.109313,-0.5723 0.02823,-0.037 0.06008,-0.046 0.08887,-0.049 z"
         style="fill:#5e6664" />
      <path
         inkscape:connector-curvature="0"
         id="path3727"
         d="m 16.152648,1004.3858 c -0.13562,8e-4 -1.006621,1.2577 -1.113368,1.6056 -0.05769,0.188 -0.149802,0.8952 -0.198392,1.5992 -0.178327,2.5836 -0.343742,5.0036 -0.483631,6.9187 -0.09208,1.2607 -0.124082,2.5835 -0.08685,3.7202 0.03186,0.9731 0.02444,1.7809 -0.01367,1.7811 -0.03808,4e-4 -0.0921,-0.533 -0.133137,-1.1778 -0.09499,-1.4925 -0.325114,-2.9197 -0.549924,-3.3226 -0.130305,-0.2336 -0.257512,-0.3187 -0.460705,-0.3375 -0.269632,-0.025 -0.276014,-0.022 -0.280433,-0.6267 -0.0024,-0.3369 0.02267,-0.7109 0.05333,-0.8123 0.06804,-0.225 0.38902,-0.2964 0.547746,-0.1349 0.181548,0.1847 0.469239,0.1359 0.517739,-0.082 0.07598,-0.3416 0.400731,-5.5293 0.424116,-6.761 l 0.02555,-0.5241 -0.304992,0 c -0.172772,0 -0.35548,-0.015 -0.396977,-0.049 -0.04147,-0.036 -0.184373,-0.078 -0.305738,-0.077 -0.287285,0 -0.30264,0.1099 -0.464468,2.4916 -0.07174,1.056 -0.200827,2.6175 -0.272067,3.4857 -0.292541,3.5658 -0.317688,4.2222 -0.282018,5.6599 0.02052,0.8269 0.01454,1.519 -0.01589,1.5457 -0.03045,0.026 -0.08636,-0.3565 -0.130166,-0.8637 -0.158694,-1.8364 -0.37327,-3.5111 -0.430157,-3.5593 -0.07024,-0.058 -0.435176,-0.073 -0.64073,-0.022 -0.125354,0.031 -0.145081,-0.088 -0.128928,-0.7325 0.01047,-0.4206 0.06207,-0.7936 0.114075,-0.8389 0.06043,-0.053 0.20287,-0.06 0.426988,0 0.213523,0.055 0.39284,0.072 0.427236,0.023 0.03106,-0.043 0.06936,-0.614 0.110113,-1.2581 0.04073,-0.6441 0.166051,-2.104 0.244045,-3.2235 0.07798,-1.1193 0.118206,-2.1609 0.09996,-2.332 -0.0303,-0.284 -0.08424,-0.3059 -0.36896,-0.3118 -0.432765,-0.011 -0.610954,-0.098 -0.612458,-0.2576 -0.0022,-0.2322 -0.184891,-0.057 -0.241765,0.2374 -0.02973,0.1532 -0.08227,1.1166 -0.132196,2.1489 -0.04992,1.0324 -0.1434,2.4696 -0.213791,3.1971 -0.07039,0.7277 -0.151272,2.5677 -0.175124,4.0614 -0.04295,2.6906 -0.119467,3.1859 -0.258401,1.7044 -0.0756,-0.806 -0.279517,-2.2706 -0.361235,-2.7217 -0.04495,-0.2482 -0.04385,-0.2608 -0.3374713,-0.2072 -0.2880994,0.053 -0.351981,0.1123 -0.542796,0.6586 l -0.2080477,0.5777 -0.064959,-0.4186 c -0.078352,-0.3962 -0.083984,-1.1212 0.085358,-3.8774 0.2769265,-4.5071 0.3547251,-5.5301 0.4035204,-5.7131 0.047306,-0.1773 0.035197,-0.1966 -0.092488,-0.1036 -0.3209411,0.2326 -0.3768224,0.6141 -0.5763153,3.5664 -0.072946,1.0794 -0.1999277,2.7649 -0.2693436,3.7738 -0.069415,1.0091 -0.1209715,2.599 -0.1190754,3.5372 0.00199,0.9744 -0.03295,1.6133 -0.077634,1.4674 -0.043023,-0.1403 -0.059134,-0.5357 -0.069168,-0.864 -0.017635,-0.5781 -0.1803092,-1.8488 -0.2972669,-2.4077 -0.039294,-0.1878 -0.1535096,-0.29 -0.3389561,-0.3644 -0.1792571,-0.072 -0.2859193,-0.1834 -0.308209,-0.3385 -0.018501,-0.1284 -0.049348,-0.2614 -0.093973,-0.2612 -0.1593352,0 -0.2093346,0.4218 -0.2539455,2.1759 -0.021203,0.8337 -0.070496,1.4066 -0.1073905,1.5462 l 10.5625489,4.196 c -0.0099,-0.03 -5.04e-4,-0.074 -0.0013,-0.1309 -0.0062,-0.4815 -0.370519,-3.5152 -0.49759,-4.2399 -0.152347,-0.8692 -0.227488,-1.0271 -0.526901,-0.8871 -0.105807,0.05 -0.282371,0.079 -0.396001,0.055 -0.265321,-0.057 -0.358688,0.1026 -0.510315,0.868 -0.162487,0.8206 -0.20519,0.9103 -0.299298,0.6046 -0.318321,-1.0345 -0.393518,-1.9703 -0.247409,-3.587 0.102083,-1.1296 0.332295,-4.2654 0.485364,-6.7353 l 0.104917,-1.8081 0.360296,-0.6049 c 0.196021,-0.3372 0.339956,-0.6318 0.29905,-0.6308 z m -1.310225,0.1401 c -0.03358,0.011 -0.07927,0.029 -0.121508,0.053 -0.07894,0.042 -0.206473,0.021 -0.30524,-0.025 -0.13284,-0.059 -0.235767,-0.017 -0.395003,0.1599 -0.250691,0.2783 -0.192868,0.499 0.09621,0.497 0.11694,-8e-4 0.233301,0.015 0.274981,0.05 0.127298,0.1066 0.213159,0.074 0.425502,-0.1603 0.270714,-0.3005 0.260289,-0.621 0.02506,-0.5764 z m -2.287185,0.041 c -0.394316,0.042 -0.470974,0.1026 -0.546262,0.292 -0.04922,0.1237 -0.05947,0.2703 -0.02728,0.3407 0.0372,0.081 0.16638,0.1385 0.367227,0.1283 0.357471,-0.019 0.698565,-0.3133 0.695787,-0.6072 -0.0013,-0.1291 -0.02206,-0.164 -0.214979,-0.1556 -0.06433,3e-4 -0.166309,-0.011 -0.274492,0 z m -1.738202,0.038 c -0.354305,0 -0.497339,0.084 -0.606268,0.3972 -0.05381,0.1552 -0.0067,0.1833 0.154228,0.1822 0.109692,-8e-4 0.210774,0.057 0.244983,0.1036 0.108326,0.1479 0.240969,0.074 0.394756,-0.186 0.236558,-0.4009 0.194893,-0.4993 -0.187699,-0.4965 z m -2.1036928,0.093 c -0.2921395,0.023 -0.4149033,0.1067 -0.5157624,0.2917 -0.070699,0.1297 -0.1225636,0.2685 -0.088526,0.3149 0.139459,0.1903 0.5660563,0.064 0.7604976,-0.2149 0.2664407,-0.3823 0.2702587,-0.425 -0.1562084,-0.3917 z m 14.8225738,-0.1036 c -0.129922,-0.011 -0.254187,0.038 -0.3345,0.1072 -0.08637,0.075 -0.155693,0.059 -0.274741,-0.025 -0.230557,-0.1614 -0.621548,0.034 -0.819762,0.3987 -0.132729,0.2441 -0.132395,0.3114 -0.02654,0.4193 0.163004,0.1657 0.360565,0.1626 0.518485,0 0.109495,-0.1153 0.136123,-0.1005 0.244242,0.024 0.19607,0.2265 0.564571,0.078 0.820505,-0.32 0.123349,-0.1922 0.179163,-0.4046 0.148041,-0.4725 -0.0338,-0.073 -0.145845,-0.1247 -0.27573,-0.1291 z m -16.2252846,0.1395 c -0.086128,0.029 -0.1978011,0.054 -0.2740031,0.054 -0.1879907,0 -0.4945413,0.3941 -0.4217886,0.5531 0.1050504,0.2295 0.5664448,0.1422 0.7307407,-0.1362 0.1731088,-0.2932 0.190995,-0.472 0.056542,-0.4719 -0.019209,-10e-5 -0.065985,5e-4 -0.091497,7e-4 z m -1.4634688,0.061 c -0.1426686,0.011 -0.3682856,0.1004 -0.5162567,0.2394 l -0.2417655,0.2375 0.2144841,0.1036 c 0.122996,0.056 0.2725514,0.071 0.3359795,0.049 0.1170131,-0.04 0.3621959,-0.404 0.3607913,-0.5525 -5.921e-4,-0.062 -0.067627,-0.083 -0.1532421,-0.078 z m 14.0618294,0.086 c -0.422858,-0.023 -0.858907,0.5452 -0.541063,0.8421 0.167604,0.1563 0.188848,0.1645 0.366239,0.023 0.149931,-0.1184 0.178138,-0.1169 0.243744,-0.028 0.142147,0.194 0.494301,0.011 0.698014,-0.3716 0.106804,-0.1983 0.17376,-0.3851 0.148534,-0.4201 -0.03316,-0.046 -0.141754,-0.056 -0.244482,-0.05 -0.102675,0.011 -0.208404,0.031 -0.243246,0.08 -0.03738,0.053 -0.121852,0.04 -0.244242,-0.025 -0.05677,-0.03 -0.123076,-0.048 -0.183484,-0.051 z m -2.408194,0.1477 c -0.351145,0.054 -0.457869,0.1482 -0.606517,0.371 -0.102062,0.1528 -0.180567,0.3244 -0.148781,0.394 0.06992,0.1527 0.207992,0.1616 0.366238,0.024 0.08927,-0.078 0.1568,-0.075 0.243993,0 0.175507,0.1484 0.437502,-0.04 0.606269,-0.397 0.0797,-0.1677 0.135158,-0.3275 0.08803,-0.3674 -0.02349,-0.02 -0.118797,-0.023 -0.213743,-0.025 -0.09494,7e-4 -0.214891,-0.013 -0.33549,0 z m 1.586944,0.093 c -0.05555,0.012 -0.225861,0.1804 -0.422531,0.4746 -0.409681,0.6127 -0.522894,1.2086 -0.613993,2.8071 -0.04772,0.8373 -0.192211,2.972 -0.321183,4.7432 -0.154531,2.1224 -0.249162,4.086 -0.250529,5.7645 -0.0012,1.4008 -0.03693,2.5675 -0.06699,2.5938 l 3.429021,1.3643 2.043442,-0.015 c -0.03646,-0.2565 -0.07309,-0.5892 -0.10165,-1.0733 -0.126088,-2.1361 -0.397765,-4.5464 -0.530565,-4.5017 -0.06392,0.022 -0.150644,-0.03 -0.183985,-0.1036 -0.03333,-0.073 -0.129477,-0.1036 -0.214484,-0.1036 -0.09229,6e-4 -0.17894,-0.108 -0.215969,-0.2605 -0.06742,-0.2776 -0.247347,-0.3532 -0.244983,-0.1026 8.06e-4,0.086 -0.136881,0.2576 -0.301278,0.395 l -0.302516,0.2641 0.02085,-1.0216 0.02085,-1.0218 0.30524,0.025 c 0.164018,0.016 0.342251,0.037 0.397235,0.076 0.05498,0.038 0.325497,0.08 0.58023,0.075 l 0.457487,0 0.05283,-0.8648 c 0.03169,-0.4737 0.0623,-1.2022 0.07615,-1.6245 0.01387,-0.4223 0.07017,-1.17 0.106402,-1.651 0.0589,-0.7817 0.0163,-0.8646 -0.130167,-0.8636 -0.176673,0 -0.201383,-0.1931 -0.06545,-0.471 0.05697,-0.1164 0.113888,-0.1398 0.121508,-0.053 0.0099,0.1136 -0.01226,0.1138 0.061,-5e-4 0.0453,-0.071 0.119751,-0.4513 0.144326,-0.8653 0.03535,-0.5955 0.01066,-0.776 -0.09918,-0.8113 -0.178868,-0.058 -0.180345,-0.2869 -0.0027,-0.2882 0.08588,-5e-4 0.141606,-0.1432 0.179281,-0.3942 0.100846,-0.6724 0.09216,-0.8751 -0.09992,-0.8899 -0.450449,-0.036 -0.99288,-0.058 -1.281709,-0.07 -0.288362,-0.01 -0.335637,-0.06 -0.369208,-0.338 l -0.03322,-0.2877 -0.179776,0.3417 c -0.138244,0.2658 -0.172163,0.6851 -0.22617,1.8875 -0.03825,0.8515 -0.13606,2.3493 -0.212553,3.3281 -0.07649,0.9789 -0.199843,2.3652 -0.245281,3.0927 -0.04544,0.7273 -0.10753,1.8558 -0.159478,2.4895 -0.05772,0.7038 -0.05472,1.9324 -2.97e-4,3.1958 0.06105,1.4177 0.02971,2.0691 -0.04144,2.0694 -0.116685,10e-4 -0.154667,-0.4635 -0.330242,-2.6694 -0.06708,-0.8427 -0.140711,-1.5601 -0.167597,-1.5967 -0.02691,-0.038 -0.06656,-0.4062 -0.06868,-0.8115 -0.002,-0.4053 -0.03533,-0.766 -0.06867,-0.8115 -0.08225,-0.1124 -0.305821,0.5335 -0.237556,0.6826 0.02982,0.066 -0.02196,0.1655 -0.08927,0.2364 -0.214146,0.2253 -0.396609,-0.01 -0.40144,-0.5211 -0.0049,-0.5164 -0.150575,-0.6101 -0.245478,-0.1554 -0.03432,0.1644 -0.105698,0.2889 -0.149773,0.2892 -0.04408,3e-4 -0.155707,0.024 -0.243504,0.054 -0.142591,0.048 -0.147525,-0.067 -0.131899,-1.0467 0.0175,-1.0967 0.01749,-1.0968 0.263848,-1.1283 0.217929,-0.028 0.469836,0.07 1.131933,0.359 0.101322,0.044 0.214731,0.049 0.244242,0.025 0.02953,-0.025 0.07132,-0.7163 0.107391,-1.5462 0.03607,-0.8298 0.107582,-2.0959 0.156506,-2.8039 0.08567,-1.2398 0.192186,-3.2844 0.207108,-3.9044 0.006,-0.25 -0.02465,-0.2909 -0.216464,-0.3128 -0.126042,-0.015 -0.293457,0.029 -0.365243,0.081 -0.09,0.066 -0.217027,0.059 -0.396488,0 -0.14316,-0.047 -0.308801,-0.055 -0.396738,-0.024 -0.248637,0.085 -0.154369,-0.6676 0.170864,-1.2847 0.148864,-0.2825 0.204092,-0.4321 0.148534,-0.4202 z m -12.6489656,0.9527 c -0.1761737,0.011 -0.3285463,0.051 -0.3647521,0.1335 -0.06075,0.1392 -0.3764702,4.7983 -0.3742584,5.582 9.944e-4,0.3535 0.068136,0.4816 0.21894,0.5747 0.2628944,0.1623 0.5031758,0.1251 0.6094933,-0.056 0.04834,-0.082 0.1144201,-0.5299 0.1428406,-1.0226 0.028403,-0.4927 0.1130407,-1.8134 0.185768,-2.9352 0.09768,-1.5067 0.1232357,-2.09 0.040452,-2.1742 -0.078403,-0.08 -0.2822545,-0.1066 -0.4584771,-0.1015 z m 2.0434412,-0.015 -0.3657406,0.029 c -0.1928881,0.018 -0.3985301,0.085 -0.4562486,0.1342 -0.057715,0.049 -0.1289428,0.5453 -0.1725975,1.1012 -0.043652,0.5563 -0.1453657,1.9601 -0.2447857,3.1451 -0.099441,1.1848 -0.1686029,2.2821 -0.1297208,2.4107 l 0.093725,0.2351 0.089022,-0.2626 c 0.1209231,-0.33 0.086832,-0.3363 0.394261,-0.2384 0.2316174,0.074 0.2950029,0.059 0.3649992,-0.1073 0.044186,-0.1057 0.080482,-0.5822 0.1118464,-1.0748 0.031368,-0.4928 0.1158536,-1.4106 0.1636856,-2.0443 0.08323,-1.1026 0.057405,-1.1482 -0.1341262,-1.2825 -0.2646893,-0.1853 -0.2425072,-0.3488 0.055057,-0.629 0.2136067,-0.2012 0.2409528,-0.3234 0.2360713,-0.84 l -0.00544,-0.576 z m -3.3241555,0.049 c -0.1368931,0.047 -0.1487055,0.4019 -0.1230363,3.1179 0.016001,1.693 0.077434,3.0873 0.1204607,3.0638 0.043031,-0.023 0.076073,-0.3093 0.085556,-0.6292 0.00947,-0.3199 0.084468,-1.6799 0.1545265,-3.0133 0.081977,-1.5605 0.069019,-2.462 0.00673,-2.5148 -0.026615,-0.023 -0.046066,-0.019 -0.091747,-0.025 -0.045693,-0.01 -0.1098899,-0.019 -0.1524955,0 z m 5.0023449,0.017 c -0.323758,0 -0.4134791,0.044 -0.486005,0.2129 -0.048525,0.1123 -0.1125213,1.0736 -0.1629426,2.1229 -0.050418,1.0495 -0.1189567,2.3426 -0.1557638,2.8824 -0.081175,1.1911 0.00214,1.5222 0.3808421,1.5691 0.1487709,0.018 0.2979143,0.016 0.3357393,0.024 0.03783,0.011 0.08893,-0.01 0.121508,-0.053 0.102115,-0.1445 0.510395,-6.5657 0.42486,-6.6825 -0.02776,-0.038 -0.241632,-0.077 -0.458234,-0.076 z m 13.914037,0.584 c -0.05504,0.1345 -0.09289,0.3397 -0.08506,0.6817 l 0.0044,0.4715 0.08951,-0.2103 -0.0089,-0.9429 z m -7.227803,0.1025 c -0.600848,0 -0.665475,0.015 -0.729999,0.2147 -0.105751,0.3272 -0.280297,2.7064 -0.270085,3.6953 0.005,0.4843 -0.03284,1.1703 -0.107392,1.5461 -0.180799,0.9111 -0.189554,2.2606 -0.0082,2.3576 0.07399,0.04 0.355523,0.076 0.641227,0.074 0.4597,0 0.539353,-0.017 0.57775,-0.1873 0.06002,-0.266 0.3413,-4.331 0.37525,-5.4772 0.0153,-0.5162 0.0506,-1.1279 0.109124,-1.3629 0.05852,-0.2349 0.105688,-0.5382 0.08531,-0.6555 -0.03516,-0.2022 -0.0625,-0.2091 -0.672962,-0.2049 z m 7.035098,2.0989 c -0.06795,0.072 -0.318376,2.8774 -0.441694,4.9015 -0.04717,0.7743 -0.138639,2.2142 -0.213544,3.2233 -0.102442,1.3798 -0.121785,2.3864 -0.05312,4.0605 0.03351,0.8172 0.0505,1.3929 0.04709,1.7546 l 1.006471,-0.011 -0.113874,-12.0485 c -0.12286,1.5695 -0.151898,1.4628 -0.154477,-0.2085 -0.0015,-0.9477 -0.0449,-1.7091 -0.07684,-1.6759 z m -17.8294123,4.682 c -0.050142,0.011 -0.087526,0.071 -0.1815095,0.1585 -0.2503463,0.2346 -0.4170103,1.0536 -0.3491558,1.7836 0.028336,0.3048 0.01126,0.7608 -0.021092,0.9954 -0.050939,0.3698 -0.041941,0.2642 -0.1594272,-0.7322 -0.074606,-0.6328 -0.1768502,-1.2725 -0.1963626,-1.4131 -0.00396,-0.028 0.020757,1.7902 0.02129,2.2525 l 1.5921437,0.6439 c -0.042052,-0.1786 -0.065058,-0.619 -0.102638,-1.1782 -0.1126949,-1.6762 -0.2127557,-2.2323 -0.4192635,-2.4069 -0.083766,-0.071 -0.1338021,-0.1086 -0.1839849,-0.1036 z m 17.6460703,1.7369 c 0.01676,-0.015 0.04086,-3e-4 0.061,-4e-4 0.0231,0.01 0.03369,-3e-4 0.06124,0.026 0.03827,0.033 0.0323,0.7952 -0.01465,1.6765 -0.04896,0.9189 -0.13081,1.6602 -0.196908,1.7565 -0.0056,0.011 -0.02544,-0.011 -0.0305,2e-4 -0.04351,-0.1046 -0.05743,-0.5288 -0.0451,-1.5453 0.0151,-1.246 0.04763,-1.8114 0.164924,-1.9132 z"
         style="fill:url(#linearGradient3758);fill-opacity:1" />
      <path
         sodipodi:nodetypes="ccccc"
         inkscape:connector-curvature="0"
         id="rect4213-2"
         d="m 4.5762313,1014.7423 18.9092737,10.1856 0.05727,7.342 -19.0088936,-13.902 z"
         style="opacity:0.77999998;fill:url(#linearGradient5342);fill-opacity:1;stroke:none" />
      <path
         sodipodi:nodetypes="ccccc"
         inkscape:connector-curvature="0"
         id="rect4200-8"
         d="m 27.348634,1032.3771 37.21495,0.032 0.205683,5.206 -37.063245,0.6604 z"
         style="fill:#333333;fill-opacity:1;stroke:none" />
      <path
         sodipodi:nodetypes="ccccccc"
         inkscape:connector-curvature="0"
         id="path3208-8"
         d="m 23.610166,1032.0424 c 10.593851,-0.4307 43.842366,-0.5081 43.842366,-0.5081 -0.0094,-8.888 0.576276,-22.2473 -1.156826,-28.9256 -1.635073,-4.2636 -9.73702,-10.26381 -18.862047,-10.263 -12.337464,-0.0687 -19.922255,8.3425 -22.264397,11.3533 -0.988465,2.3521 -1.751005,12.4793 -1.559096,28.3432 z"
         style="fill:url(#linearGradient5294);fill-opacity:1;stroke:url(#linearGradient5286);stroke-width:0.99138558;stroke-miterlimit:4;stroke-opacity:1;stroke-dasharray:none" />
      <path
         sodipodi:nodetypes="csccccc"
         inkscape:connector-curvature="0"
         id="rect4189-5"
         d="m 25.09719,1003.6909 c 0.609133,-0.6531 6.029643,-4.68961 9.75401,-4.84671 2.586419,-0.10909 24.018049,-0.41067 24.018049,-0.41067 2.812786,0.11527 6.207542,2.59758 7.0675,3.67348 1.330272,2.4926 1.509803,8.1777 1.480725,16.3904 0,0 -37.904137,0.2071 -43.67303,0.4376 0.01964,-7.3507 0.922767,-14.4372 1.352746,-15.2441 z"
         style="fill:url(#linearGradient5326);fill-opacity:1;stroke:url(#linearGradient5334);stroke-width:0.99418974;stroke-linejoin:round;stroke-miterlimit:4;stroke-opacity:1;stroke-dasharray:none" />
      <path
         sodipodi:nodetypes="ssssssssss"
         inkscape:connector-curvature="0"
         id="rect4163-7"
         d="m 26.084847,1003.1973 c 1.755646,-1.3183 4.255115,-2.5946 5.81199,-3.1919 3.410958,-1.3085 5.972966,-0.44362 5.972966,-0.44362 0.570218,-0.1075 1.105788,0.3788 1.117967,0.99212 l 0.221975,11.1727 c 0.01218,0.6133 -0.466428,1.0924 -1.045444,1.1075 l -12.730278,0.3326 c -0.579004,0.015 -1.185015,-0.404 -1.264194,-1.045 -0.195346,-1.5814 0.811889,-7.4981 0.811889,-7.4981 0.05939,-0.6105 0.630631,-1.0714 1.103129,-1.4263 z"
         style="fill:url(#linearGradient5317);fill-opacity:1;stroke:none" />
      <path
         sodipodi:nodetypes="ssssssssss"
         inkscape:connector-curvature="0"
         id="rect4163-3-0"
         d="m 65.422052,1001.8095 c -1.164149,-0.9703 -2.364695,-1.81431 -3.874254,-2.27953 -3.078236,-0.94867 -5.933265,-0.50555 -6.420444,-0.47839 -0.578374,0.0322 -1.889229,0.40904 -1.882139,1.02252 l 0.128202,11.0938 c 0.0066,0.6135 0.466264,1.1042 1.045445,1.1074 l 11.813422,0.065 c 0.579209,0 1.001751,-0.4957 1.045445,-1.1074 0.176776,-2.4749 -0.710082,-7.322 -0.710082,-7.322 -0.0592,-0.6105 -0.690429,-1.722 -1.145595,-2.1014 z"
         style="fill:url(#linearGradient5314);fill-opacity:1;stroke:none" />
      <path
         sodipodi:nodetypes="cssssssssc"
         inkscape:connector-curvature="0"
         id="rect4184-2"
         d="m 43.437261,999.19937 6.013598,0.12482 c 0.579063,0.012 1.044264,0.4939 1.045444,1.10741 l 0.02039,10.5826 c 9.45e-4,0.6135 -0.203396,1.3823 -0.782553,1.3859 l -6.174493,0.038 c -0.579158,0 -1.038638,-0.4939 -1.045444,-1.1075 l -0.122397,-11.0238 c -0.0066,-0.61349 0.466381,-1.11945 1.045444,-1.10743 z"
         style="fill:url(#linearGradient5311);fill-opacity:1;stroke:none" />
      <path
         sodipodi:nodetypes="sssssssss"
         inkscape:connector-curvature="0"
         id="rect4186-2"
         d="m 40.351664,994.14749 13.464186,-0.14766 c 0.119159,-10e-4 0.216315,0.096 0.2151,0.2151 l -0.03012,2.95062 c -0.0012,0.11916 -0.09595,0.21439 -0.2151,0.2151 l -13.43406,0.0804 c -0.119146,7.1e-4 -0.2151,-0.0959 -0.2151,-0.2151 l 0,-2.8834 c 0,-0.11916 0.09589,-0.21379 0.21509,-0.2151 z"
         style="fill:#333333;fill-opacity:1;stroke:none" />
      <path
         transform="matrix(0.10755066,0,0,0.10755066,-2.0542001,972.35422)"
         d="m 347.85714,457.36218 c 0,8.67876 -7.03553,15.71429 -15.71429,15.71429 -8.67876,0 -15.71428,-7.03553 -15.71428,-15.71429 0,-8.67876 7.03552,-15.71428 15.71428,-15.71428 8.67876,0 15.71429,7.03552 15.71429,15.71428 z"
         sodipodi:ry="15.714286"
         sodipodi:rx="15.714286"
         sodipodi:cy="457.36218"
         sodipodi:cx="332.14285"
         id="path4192-9"
         style="fill:#ffff85;fill-opacity:1;stroke:none;filter:url(#filter5430-6)"
         sodipodi:type="arc" />
      <path
         sodipodi:nodetypes="ccccc"
         inkscape:connector-curvature="0"
         id="rect4197-1"
         d="m 38.5632,1032.3744 16.16219,-0.2588 -0.0312,3.3803 -16.09978,0.2567 z"
         style="fill:#555753;fill-opacity:1;stroke:none" />
      <path
         transform="matrix(0.08181537,0,0,0.08181537,6.097011,986.77305)"
         d="m 350,583.79077 c 0,6.70632 -5.43654,12.14286 -12.14285,12.14286 -6.70632,0 -12.14286,-5.43654 -12.14286,-12.14286 0,-6.70631 5.43654,-12.14286 12.14286,-12.14286 6.70631,0 12.14285,5.43655 12.14285,12.14286 z"
         sodipodi:ry="12.142858"
         sodipodi:rx="12.142858"
         sodipodi:cy="583.79077"
         sodipodi:cx="337.85715"
         id="path4209-3"
         style="fill:#931f1f;fill-opacity:1;stroke:none"
         sodipodi:type="arc" />
      <g
         transform="matrix(0.10663915,2.3802404e-4,-2.2086615e-4,0.09895131,-1.2682415,973.37827)"
         id="text4216-1"
         style="font-size:22.58842659px;font-style:normal;font-variant:normal;font-weight:normal;font-stretch:normal;line-height:125%;letter-spacing:0px;word-spacing:0px;fill:#cbd800;fill-opacity:1;stroke:none;font-family:Ubuntu;-inkscape-font-specification:Ubuntu">
        <path
           inkscape:connector-curvature="0"
           id="path4221-3"
           d="m 402.56851,217.22615 0,1.89743 -4.92428,0 0,13.75635 -2.19108,0 0,-13.75635 -4.92427,0 0,-1.89743 12.03963,0" />
        <path
           inkscape:connector-curvature="0"
           id="path4223-7"
           d="m 413.41448,232.5411 c -0.4819,0.12047 -1.1219,0.24847 -1.92001,0.38401 -0.78308,0.13553 -1.69414,0.20329 -2.7332,0.20329 -0.90355,0 -1.66402,-0.128 -2.28144,-0.384 -0.61742,-0.27106 -1.11436,-0.64754 -1.49083,-1.12942 -0.37648,-0.48189 -0.64754,-1.0466 -0.81319,-1.69414 -0.16565,-0.66259 -0.24847,-1.39294 -0.24847,-2.19107 l 0,-6.59582 2.10073,0 0,6.14405 c -1e-5,1.4306 0.22588,2.45461 0.67765,3.07202 0.45176,0.61742 1.21224,0.92613 2.28143,0.92613 0.22588,0 0.45929,-0.008 0.70024,-0.0226 0.24094,-0.0151 0.46682,-0.0301 0.67765,-0.0452 0.21082,-0.0301 0.39906,-0.0527 0.56471,-0.0678 0.1807,-0.0301 0.3087,-0.0602 0.38401,-0.0904 l 0,-9.91632 2.10072,0 0,11.40715" />
        <path
           inkscape:connector-curvature="0"
           id="path4225-6"
           d="m 419.22253,221.65348 c 0.256,-0.16564 0.64,-0.33881 1.15201,-0.51953 0.52706,-0.1807 1.12942,-0.27105 1.80707,-0.27106 0.8433,1e-5 1.58872,0.1506 2.23626,0.45176 0.66258,0.30119 1.21976,0.72284 1.67154,1.26496 0.45176,0.54213 0.79059,1.18966 1.01648,1.9426 0.24093,0.75296 0.3614,1.5812 0.36142,2.48473 -2e-5,0.94872 -0.14308,1.80708 -0.42918,2.57508 -0.27108,0.75295 -0.66261,1.39295 -1.1746,1.92001 -0.51202,0.52707 -1.12943,0.93366 -1.85225,1.21978 -0.72284,0.28612 -1.53602,0.42918 -2.43955,0.42918 -0.97884,0 -1.84473,-0.0678 -2.59767,-0.2033 -0.75295,-0.13553 -1.37037,-0.27106 -1.85225,-0.40659 l 0,-16.82838 2.10072,-0.36141 0,6.30217 m 0,9.39679 c 0.21082,0.0602 0.50447,0.12047 0.88095,0.1807 0.39153,0.0452 0.87341,0.0678 1.44566,0.0678 1.12941,0 2.03295,-0.36894 2.71061,-1.10683 0.67764,-0.75295 1.01647,-1.8146 1.01648,-3.18497 -10e-6,-0.60235 -0.0602,-1.16706 -0.18071,-1.69413 -0.12048,-0.52706 -0.31625,-0.97883 -0.5873,-1.35531 -0.27107,-0.39152 -0.62495,-0.6927 -1.06165,-0.90354 -0.42166,-0.22587 -0.93367,-0.33881 -1.53602,-0.33882 -0.57224,1e-5 -1.09931,0.0979 -1.58119,0.29365 -0.48189,0.19577 -0.85083,0.39907 -1.10683,0.60988 l 0,7.4316" />
        <path
           inkscape:connector-curvature="0"
           id="path4227-1"
           d="m 429.87862,227.02953 c 0,-1.03906 0.15059,-1.9426 0.45177,-2.71062 0.30118,-0.78305 0.70024,-1.43059 1.19719,-1.9426 0.49694,-0.51199 1.06918,-0.896 1.71672,-1.15201 0.64753,-0.25599 1.31012,-0.38399 1.98778,-0.384 1.58118,10e-6 2.79342,0.49695 3.63674,1.49083 0.84329,0.97884 1.26494,2.47721 1.26495,4.4951 -1e-5,0.0904 -1e-5,0.21083 0,0.36142 -1e-5,0.13553 -0.008,0.26353 -0.0226,0.384 l -8.04148,0 c 0.0904,1.21978 0.44423,2.1459 1.06165,2.77837 0.61742,0.63248 1.58119,0.94872 2.89132,0.94872 0.73788,0 1.3553,-0.0602 1.85225,-0.18071 0.512,-0.13553 0.896,-0.26353 1.15201,-0.384 l 0.29365,1.7619 c -0.25601,0.13553 -0.70778,0.27859 -1.3553,0.42918 -0.63249,0.15058 -1.35532,0.22588 -2.16849,0.22588 -1.02402,0 -1.91249,-0.15059 -2.66544,-0.45177 -0.73789,-0.31624 -1.34777,-0.74542 -1.82966,-1.28754 -0.48189,-0.54212 -0.8433,-1.18212 -1.08424,-1.92002 -0.22589,-0.75294 -0.33883,-1.57365 -0.33883,-2.46213 m 8.06407,-1.15201 c 0.015,-0.94871 -0.22589,-1.72424 -0.72283,-2.32661 -0.48189,-0.61741 -1.15202,-0.92612 -2.01037,-0.92613 -0.48189,1e-5 -0.91107,0.0979 -1.28754,0.29365 -0.36142,0.18072 -0.67013,0.42166 -0.92613,0.72283 -0.256,0.30119 -0.4593,0.64755 -0.60988,1.03907 -0.13554,0.39154 -0.22589,0.7906 -0.27106,1.19719 l 5.82781,0" />
        <path
           inkscape:connector-curvature="0"
           id="path4229-4"
           d="m 455.40072,233.21875 c -1.09931,0 -2.10073,-0.1807 -3.00426,-0.54212 -0.90354,-0.36141 -1.67908,-0.88847 -2.32661,-1.58119 -0.64754,-0.69271 -1.15201,-1.54354 -1.51342,-2.55249 -0.34636,-1.024 -0.51954,-2.19107 -0.51954,-3.50121 0,-1.31012 0.19577,-2.46965 0.5873,-3.47861 0.40659,-1.024 0.94871,-1.88236 1.62637,-2.57508 0.67765,-0.6927 1.46824,-1.21976 2.37178,-1.58119 0.90353,-0.3614 1.86731,-0.54211 2.89132,-0.54213 0.64753,2e-5 1.2273,0.0452 1.73931,0.13553 0.52705,0.0904 0.97882,0.19579 1.35531,0.31624 0.39152,0.12049 0.70775,0.24096 0.94871,0.36142 0.24093,0.12048 0.40658,0.21084 0.49695,0.27106 l -0.63248,1.80707 c -0.13554,-0.0903 -0.33131,-0.18822 -0.5873,-0.29365 -0.25601,-0.1054 -0.54966,-0.21081 -0.88095,-0.31623 -0.31625,-0.1054 -0.67013,-0.18823 -1.06165,-0.24848 -0.37649,-0.0753 -0.76049,-0.11293 -1.15201,-0.11294 -0.82825,1e-5 -1.57367,0.14307 -2.23626,0.42918 -0.6626,0.28613 -1.22731,0.70025 -1.69413,1.24236 -0.46683,0.54214 -0.82825,1.20473 -1.08424,1.98779 -0.24095,0.76801 -0.36142,1.6339 -0.36142,2.59766 0,0.93367 0.10541,1.7845 0.31624,2.5525 0.22588,0.76801 0.55718,1.4306 0.99389,1.98778 0.4367,0.54212 0.97883,0.96377 1.62637,1.26495 0.66258,0.30118 1.43059,0.45177 2.30402,0.45177 1.00894,0 1.84471,-0.10541 2.50731,-0.31624 0.66258,-0.21082 1.15953,-0.39906 1.49084,-0.56471 l 0.56471,1.80707 c -0.10543,0.0753 -0.29366,0.17318 -0.56471,0.29365 -0.27108,0.10542 -0.6099,0.21083 -1.01648,0.31624 -0.40661,0.10541 -0.88096,0.19577 -1.42307,0.27106 -0.54214,0.0753 -1.12943,0.11294 -1.7619,0.11294" />
        <path
           inkscape:connector-curvature="0"
           id="path4231-9"
           d="m 462.60748,232.87993 0,-17.16721 2.10073,-0.36141 0,6.00852 c 0.39153,-0.15058 0.80565,-0.26352 1.24236,-0.33883 0.45176,-0.0903 0.896,-0.13551 1.33272,-0.13553 0.93365,2e-5 1.70918,0.13555 2.32661,0.4066 0.6174,0.25601 1.10682,0.62495 1.46824,1.10683 0.37647,0.46684 0.64,1.03155 0.7906,1.69413 0.15058,0.6626 0.22587,1.39296 0.22588,2.19108 l 0,6.59582 -2.10072,0 0,-6.14405 c -10e-6,-0.72283 -0.0527,-1.34024 -0.15812,-1.85225 -0.0904,-0.512 -0.24848,-0.92612 -0.47436,-1.24237 -0.22589,-0.31623 -0.52707,-0.54211 -0.90353,-0.67765 -0.37648,-0.15058 -0.84331,-0.22587 -1.40049,-0.22588 -0.22589,1e-5 -0.4593,0.0151 -0.70024,0.0452 -0.24095,0.0301 -0.47436,0.0678 -0.70024,0.11294 -0.21083,0.0301 -0.40659,0.0678 -0.5873,0.11295 -0.16565,0.0452 -0.28612,0.0828 -0.36141,0.11294 l 0,9.7582 -2.10073,0" />
        <path
           inkscape:connector-curvature="0"
           id="path4233-2"
           d="m 479.55375,231.3665 c 0.49694,1e-5 0.93365,-0.008 1.31013,-0.0226 0.39152,-0.0301 0.71529,-0.0753 0.9713,-0.13553 l 0,-3.50121 c -0.1506,-0.0753 -0.39907,-0.13553 -0.74542,-0.18071 -0.3313,-0.0602 -0.73789,-0.0904 -1.21977,-0.0904 -0.31624,0 -0.65507,0.0226 -1.01648,0.0678 -0.34636,0.0452 -0.67013,0.14307 -0.9713,0.29365 -0.28613,0.13554 -0.52707,0.3313 -0.72283,0.5873 -0.19577,0.24095 -0.29365,0.56472 -0.29365,0.9713 0,0.75295 0.24094,1.28002 0.72283,1.58119 0.48188,0.28613 1.13694,0.42919 1.96519,0.42918 m -0.18071,-10.5262 c 0.8433,1e-5 1.55107,0.11295 2.12332,0.33882 0.58729,0.21084 1.05411,0.51955 1.40048,0.92613 0.3614,0.39154 0.61741,0.8659 0.768,1.42307 0.15058,0.54213 0.22588,1.14449 0.22589,1.80707 l 0,7.34124 c -0.18072,0.0301 -0.43672,0.0753 -0.76801,0.13553 -0.31624,0.0452 -0.67766,0.0904 -1.08424,0.13553 -0.4066,0.0452 -0.85084,0.0828 -1.33272,0.11295 -0.46683,0.0452 -0.93366,0.0678 -1.40048,0.0678 -0.6626,0 -1.27249,-0.0678 -1.82966,-0.20329 -0.55719,-0.13554 -1.03907,-0.34636 -1.44566,-0.63248 -0.4066,-0.30118 -0.72283,-0.69271 -0.94872,-1.1746 -0.22588,-0.48188 -0.33882,-1.06165 -0.33882,-1.73931 0,-0.64753 0.128,-1.20471 0.384,-1.67154 0.27106,-0.46682 0.63247,-0.8433 1.08424,-1.12942 0.45177,-0.28612 0.97883,-0.49694 1.58119,-0.63248 0.60236,-0.13552 1.23483,-0.20329 1.89743,-0.20329 0.21082,0 0.42918,0.0151 0.65507,0.0452 0.22587,0.0151 0.4367,0.0452 0.63247,0.0904 0.21082,0.0301 0.39153,0.0602 0.54212,0.0904 0.15059,0.0301 0.256,0.0527 0.31624,0.0678 l 0,-0.5873 c -10e-6,-0.34635 -0.0376,-0.68518 -0.11294,-1.01648 -0.0753,-0.34635 -0.21083,-0.64753 -0.40659,-0.90354 -0.19578,-0.27105 -0.46684,-0.48188 -0.81319,-0.63248 -0.3313,-0.16563 -0.76801,-0.24846 -1.31012,-0.24847 -0.69272,1e-5 -1.30261,0.0527 -1.82967,0.15812 -0.512,0.0904 -0.89601,0.18825 -1.15201,0.29365 l -0.24847,-1.73931 c 0.27106,-0.12046 0.72283,-0.2334 1.35531,-0.33883 0.63247,-0.12045 1.31765,-0.18069 2.05554,-0.1807" />
        <path
           inkscape:connector-curvature="0"
           id="path4235-0"
           d="m 490.17913,231.3665 c 0.85836,1e-5 1.49083,-0.11294 1.89743,-0.33882 0.42164,-0.22588 0.63247,-0.5873 0.63248,-1.08425 -1e-5,-0.512 -0.20331,-0.91859 -0.60989,-1.21977 -0.4066,-0.30118 -1.07672,-0.64 -2.01037,-1.01648 -0.45177,-0.1807 -0.88848,-0.36141 -1.31013,-0.54212 -0.40659,-0.19576 -0.76048,-0.42165 -1.06166,-0.67766 -0.30118,-0.25599 -0.54212,-0.5647 -0.72283,-0.92612 -0.1807,-0.36141 -0.27106,-0.80565 -0.27106,-1.33272 0,-1.03906 0.384,-1.85977 1.15201,-2.46214 0.76801,-0.6174 1.8146,-0.92611 3.13979,-0.92612 0.33129,10e-6 0.66259,0.0226 0.99389,0.0678 0.33129,0.0301 0.64,0.0753 0.92613,0.13553 0.28611,0.0452 0.53458,0.0979 0.74542,0.15812 0.22587,0.0602 0.39905,0.11296 0.51953,0.15812 l -0.384,1.80708 c -0.22589,-0.12047 -0.57978,-0.24094 -1.06166,-0.36142 -0.48189,-0.13552 -1.06166,-0.20329 -1.73931,-0.2033 -0.5873,1e-5 -1.0993,0.12049 -1.53601,0.36142 -0.43671,0.22589 -0.65507,0.58731 -0.65506,1.08424 -10e-6,0.25601 0.0452,0.4819 0.13553,0.67766 0.10541,0.19577 0.256,0.37648 0.45177,0.54212 0.21082,0.1506 0.46682,0.29366 0.768,0.42918 0.30118,0.13554 0.66259,0.2786 1.08425,0.42918 0.55717,0.21083 1.05412,0.42166 1.49083,0.63247 0.4367,0.19578 0.80565,0.42919 1.10684,0.70025 0.31622,0.27106 0.55717,0.60236 0.72283,0.99389 0.16563,0.37647 0.24846,0.8433 0.24847,1.40048 -1e-5,1.08425 -0.4066,1.90496 -1.21978,2.46214 -0.79813,0.55718 -1.94261,0.83577 -3.43344,0.83577 -1.03907,0 -1.85225,-0.0904 -2.43955,-0.27106 -0.5873,-0.16565 -0.98636,-0.29365 -1.19718,-0.384 l 0.384,-1.80708 c 0.24094,0.0904 0.62494,0.22589 1.15201,0.40659 0.52706,0.18071 1.2273,0.27107 2.10072,0.27106" />
        <path
           inkscape:connector-curvature="0"
           id="path4237-1"
           d="m 496.93801,227.02953 c 0,-1.03906 0.15059,-1.9426 0.45177,-2.71062 0.30117,-0.78305 0.70024,-1.43059 1.19718,-1.9426 0.49695,-0.51199 1.06919,-0.896 1.71672,-1.15201 0.64753,-0.25599 1.31013,-0.38399 1.98779,-0.384 1.58118,10e-6 2.79342,0.49695 3.63673,1.49083 0.84329,0.97884 1.26494,2.47721 1.26495,4.4951 -10e-6,0.0904 -10e-6,0.21083 0,0.36142 -10e-6,0.13553 -0.008,0.26353 -0.0226,0.384 l -8.04148,0 c 0.0904,1.21978 0.44423,2.1459 1.06165,2.77837 0.61741,0.63248 1.58119,0.94872 2.89132,0.94872 0.73788,0 1.3553,-0.0602 1.85225,-0.18071 0.512,-0.13553 0.896,-0.26353 1.15201,-0.384 l 0.29365,1.7619 c -0.25601,0.13553 -0.70778,0.27859 -1.3553,0.42918 -0.63249,0.15058 -1.35532,0.22588 -2.16849,0.22588 -1.02402,0 -1.9125,-0.15059 -2.66544,-0.45177 -0.73789,-0.31624 -1.34778,-0.74542 -1.82966,-1.28754 -0.48189,-0.54212 -0.8433,-1.18212 -1.08425,-1.92002 -0.22588,-0.75294 -0.33882,-1.57365 -0.33882,-2.46213 m 8.06407,-1.15201 c 0.0151,-0.94871 -0.2259,-1.72424 -0.72283,-2.32661 -0.4819,-0.61741 -1.15202,-0.92612 -2.01037,-0.92613 -0.4819,1e-5 -0.91108,0.0979 -1.28754,0.29365 -0.36142,0.18072 -0.67013,0.42166 -0.92613,0.72283 -0.256,0.30119 -0.4593,0.64755 -0.60989,1.03907 -0.13553,0.39154 -0.22588,0.7906 -0.27106,1.19719 l 5.82782,0" />
        <path
           inkscape:connector-curvature="0"
           id="path4239-8"
           d="m 514.63604,220.88547 c 0.18071,2e-5 0.384,0.0151 0.60989,0.0452 0.24094,0.0151 0.47435,0.0452 0.70024,0.0903 0.22588,0.0301 0.42918,0.0678 0.60989,0.11295 0.19576,0.0301 0.33882,0.0602 0.42918,0.0904 l -0.36141,1.82966 c -0.16566,-0.0602 -0.44425,-0.12799 -0.83578,-0.20329 -0.37648,-0.0904 -0.86589,-0.13552 -1.46824,-0.13553 -0.39154,1e-5 -0.78307,0.0452 -1.1746,0.13553 -0.37648,0.0753 -0.62495,0.12801 -0.74542,0.15812 l 0,9.87114 -2.10072,0 0,-11.24904 c 0.49694,-0.18069 1.11436,-0.34634 1.85225,-0.49694 0.73788,-0.16564 1.56612,-0.24846 2.48472,-0.24848" />
      </g>
      <path
         transform="matrix(0.10755066,0,0,0.10755066,23.576951,971.94026)"
         d="m 347.85714,457.36218 c 0,8.67876 -7.03553,15.71429 -15.71429,15.71429 -8.67876,0 -15.71428,-7.03553 -15.71428,-15.71429 0,-8.67876 7.03552,-15.71428 15.71428,-15.71428 8.67876,0 15.71429,7.03552 15.71429,15.71428 z"
         sodipodi:ry="15.714286"
         sodipodi:rx="15.714286"
         sodipodi:cy="457.36218"
         sodipodi:cx="332.14285"
         id="path4192-7-6"
         style="fill:#ffff85;fill-opacity:1;stroke:none;filter:url(#filter5430-0-9)"
         sodipodi:type="arc" />
      <path
         sodipodi:nodetypes="ccccc"
         inkscape:connector-curvature="0"
         id="rect3165-3"
         d="m 40.989995,998.91767 11.416976,-0.0856 0.08851,31.83793 -11.770991,0.085 z"
         style="fill:none;stroke:#555753;stroke-width:0.98466074;stroke-linejoin:round;stroke-miterlimit:4;stroke-opacity:1;stroke-dashoffset:0" />
      <path
         transform="matrix(0.08181537,0,0,0.08181537,31.358093,986.53662)"
         d="m 350,583.79077 c 0,6.70632 -5.43654,12.14286 -12.14285,12.14286 -6.70632,0 -12.14286,-5.43654 -12.14286,-12.14286 0,-6.70631 5.43654,-12.14286 12.14286,-12.14286 6.70631,0 12.14285,5.43655 12.14285,12.14286 z"
         sodipodi:ry="12.142858"
         sodipodi:rx="12.142858"
         sodipodi:cy="583.79077"
         sodipodi:cx="337.85715"
         id="path4209-3-8"
         style="fill:#931f1f;fill-opacity:1;stroke:none"
         sodipodi:type="arc" />
    </g>
  </g>
</svg>
